<?xml version="1.0" standalone="no"?>
<!DOCTYPE svg PUBLIC "-//W3C//DTD SVG 20010904//EN"
 "http://www.w3.org/TR/2001/REC-SVG-20010904/DTD/svg10.dtd">
<svg version="1.0" xmlns="http://www.w3.org/2000/svg"
 width="700.000000pt" height="700.000000pt" viewBox="0 0 700.000000 700.000000"
 preserveAspectRatio="xMidYMid meet">
<metadata>
Created by potrace 1.11, written by Peter Selinger 2001-2013
</metadata>
<g transform="translate(0.000000,700.000000) scale(0.100000,-0.100000)"
fill="#000000" stroke="none">
<path d="M2735 6870 c2 -11 7 -64 10 -117 4 -54 8 -118 10 -143 2 -25 7 -83
10 -130 3 -47 8 -101 10 -120 2 -19 7 -80 10 -135 4 -55 8 -116 10 -136 2 -19
6 -76 10 -125 3 -49 8 -108 10 -131 3 -24 7 -78 10 -120 11 -160 21 -301 30
-398 2 -22 7 -80 10 -130 4 -49 8 -110 10 -135 2 -25 7 -83 10 -130 4 -47 9
-87 12 -90 2 -3 245 -5 539 -5 528 0 534 0 535 20 0 11 2 28 4 37 2 9 6 63 10
120 8 131 12 184 19 267 3 36 8 104 12 151 3 47 7 101 9 120 2 19 6 76 9 125
4 50 9 113 11 140 2 28 7 84 10 125 3 41 8 100 10 130 3 30 7 87 10 125 20
266 24 331 30 395 3 30 7 93 11 140 3 47 7 104 9 128 l3 42 -698 0 c-693 0
-699 0 -695 -20z m1092 -318 c-2 -34 -7 -65 -10 -69 -7 -6 -765 -9 -771 -2
-10 10 -16 123 -8 128 6 3 186 6 402 6 l391 0 -4 -63z m-32 -427 c-3 -44 -8
-100 -10 -125 -2 -25 -7 -83 -10 -130 -3 -47 -8 -101 -10 -120 -2 -19 -7 -82
-10 -140 -3 -58 -8 -121 -10 -140 -2 -19 -6 -69 -9 -110 -3 -41 -9 -111 -12
-155 -4 -44 -7 -86 -7 -92 0 -10 -64 -13 -287 -13 l-286 0 0 23 c-1 26 -14
216 -19 267 -2 19 -7 76 -10 125 -4 50 -8 104 -10 120 -2 17 -6 80 -9 140 -4
61 -9 124 -11 140 -2 17 -7 73 -10 125 -3 52 -8 109 -10 127 -4 27 -1 32 18
35 12 2 179 3 370 3 l348 0 -6 -80z"/>
<path d="M326 6563 c-58 -58 -105 -110 -104 -114 2 -4 675 -681 1496 -1505
l1493 -1497 -850 -851 c-1234 -1235 -2141 -2148 -2141 -2154 0 -3 48 -54 108
-114 l107 -109 1498 1503 1499 1503 1496 -1503 1497 -1502 108 108 c59 59 107
111 107 116 0 5 -400 410 -890 900 -1516 1519 -2090 2097 -2090 2104 0 4 673
682 1494 1506 l1493 1499 -108 109 c-59 59 -109 108 -112 108 -4 0 -1439
-1435 -2495 -2497 l-500 -502 -828 830 c-456 456 -1129 1131 -1495 1499 -367
369 -669 670 -671 670 -3 0 -53 -48 -112 -107z"/>
<path d="M0 4141 c0 -430 3 -550 13 -553 6 -2 99 -4 205 -3 l192 0 0 -688 0
-688 138 3 137 3 2 665 c1 366 2 674 2 685 1 20 7 20 204 20 l202 0 2 552 2
552 -137 0 -138 0 1 -402 c0 -221 -1 -408 -3 -414 -3 -9 -26 -13 -71 -13 l-66
0 0 412 0 413 -137 1 -138 2 0 -414 0 -414 -68 0 -68 0 1 403 c1 221 -1 407
-3 414 -2 7 -46 11 -138 12 l-134 1 0 -549z"/>
<path d="M6178 4682 c-2 -4 -3 -94 -3 -199 1 -106 -1 -193 -3 -193 -2 0 -81
79 -176 175 l-174 175 -92 -94 c-51 -52 -92 -97 -93 -101 0 -5 121 -129 269
-278 l269 -270 1 -123 c0 -68 -1 -124 -3 -124 -2 0 -82 78 -177 174 l-173 174
-97 -97 -97 -98 273 -275 274 -276 -1 -508 c0 -280 1 -515 3 -521 3 -10 40
-13 138 -13 l134 0 0 521 0 522 275 276 275 276 -97 97 -97 98 -176 -177 -175
-176 -3 123 -3 124 276 276 275 275 -97 98 -98 97 -177 -177 -178 -178 0 201
0 201 -135 1 c-74 1 -136 -2 -137 -6z"/>
<path d="M2609 1743 c0 -29 0 -379 0 -778 0 -399 0 -747 0 -774 l1 -49 663 2
c606 2 668 4 732 20 152 40 225 114 243 244 14 99 7 311 -12 376 -21 71 -82
135 -147 156 -87 27 -89 31 -23 51 73 22 134 73 165 135 19 41 22 63 23 197 1
84 -2 180 -6 214 -17 145 -105 226 -268 249 -30 4 -351 8 -712 8 l-658 1 -1
-52z m1338 -249 l28 -21 3 -149 c4 -186 -1 -200 -65 -210 -54 -8 -1011 -12
-1022 -4 -4 3 -8 95 -8 206 l0 201 518 -1 c510 -1 518 -1 546 -22z m-8 -679
c37 -19 41 -36 41 -181 0 -143 -9 -178 -52 -193 -21 -7 -203 -11 -538 -11
l-506 0 -1 200 0 200 514 0 c431 0 519 -2 542 -15z"/>
</g>
</svg>
