<?xml version="1.0" encoding="UTF-8" standalone="no"?>
<svg width="480px" height="160px" viewBox="0 0 480 160" version="1.1" xmlns="http://www.w3.org/2000/svg" xmlns:xlink="http://www.w3.org/1999/xlink">
    <!-- Generator: Sketch 3.7 (28169) - http://www.bohemiancoding.com/sketch -->
    <title>image</title>
    <desc>Created with Sketch.</desc>
    <defs>
        <linearGradient x1="5.01441262%" y1="0%" x2="100%" y2="100%" id="linearGradient-1">
            <stop stop-color="#757578" offset="0%"></stop>
            <stop stop-color="#49494C" offset="100%"></stop>
        </linearGradient>
    </defs>
    <g id="Assets" stroke="none" stroke-width="1" fill="none" fill-rule="evenodd">
        <g id="image">
            <rect id="Rectangle-74-Copy-2" fill="#FAF8F4" x="360" y="0" width="120" height="160" rx="12"></rect>
            <path d="M440.565883,77.4565 C435.972302,85.138 426.641637,88 421.400799,88 L418.41116,88 C413.316814,88 404.059396,85.192 399.432929,77.4565 C394.380438,69.007 395.691395,63.154 398.240063,56.5 L441.758749,56.5 C444.307416,63.154 445.618373,69.0055 440.565883,77.4565 M402.154996,46 L437.843816,46 C438.627101,48.6535 439.610693,51.109 440.571862,53.5 L399.42695,53.5 C400.389614,51.109 401.373205,48.6535 402.154996,46 M440.141354,43 L399.858953,43 C396.93359,55.477 387.90189,64 396.870808,79 C402.101182,87.7465 412.431881,91 418.41116,91 L418.41116,115 L403.462963,115 L403.462963,118 L436.348996,118 L436.348996,115 L421.400799,115 L421.400799,91 C427.380078,91 437.899124,87.7465 443.129498,79 C452.098416,64 443.065221,55.477 440.141354,43" id="Fill-1" fill="url(#linearGradient-1)"></path>
            <rect id="Rectangle-74" fill="#FAF8F4" x="180" y="0" width="120" height="160" rx="12"></rect>
            <path d="M256.391928,112.011262 L224.965138,112.011262 C224.965138,84.2800424 235.895675,75.5866733 247.786974,66.3494083 C246.637651,66.5287146 245.450915,66.5974487 244.238739,66.5974487 C240.069452,66.5974487 235.590386,65.7801107 231.301377,65.7801107 C225.408106,65.7786164 219.873998,67.3221452 215.986055,74.6557745 L212.993028,74.6557745 L212.993028,49.2540429 L215.986055,49.2540429 L215.986055,53.7367014 C221.761102,50.132644 226.582869,48.8745112 230.800045,48.8745112 C240.521399,48.8745112 247.047696,55.5476955 254.756238,55.5476955 C257.105765,55.5476955 259.561544,54.9290886 262.252276,53.3138373 C263.325276,52.0467392 264.368346,50.7019416 265.371011,49.2540429 L271.357066,53.7367014 C271.357066,53.7367014 253.3989,70.173116 256.391928,112.011262 L256.391928,112.011262 Z M273.152882,51.3459502 L267.166827,46.8632917 L264.678125,45 L262.907749,47.5551154 C262.096639,48.7295719 261.23764,49.8592018 260.293339,50.9948087 C258.418208,52.0467392 256.60144,52.5592565 254.756238,52.5592565 C251.754232,52.5592565 248.809092,51.2652624 245.397041,49.765066 C241.260677,47.9466009 236.572099,45.8860722 230.800045,45.8860722 C226.931557,45.8860722 223.031642,46.810994 218.979083,48.6996875 L218.979083,46.2656039 L215.986055,46.2656039 L212.993028,46.2656039 L210,46.2656039 L210,49.2540429 L210,74.6557745 L210,77.6442135 L212.993028,77.6442135 L215.986055,77.6442135 L217.787858,77.6442135 L218.631892,76.054364 C222.025985,69.6501392 226.728031,68.7685497 231.301377,68.7685497 C233.320175,68.7685497 235.48563,68.9717635 237.580749,69.1675063 C238.158404,69.2227924 238.743541,69.2765843 239.330174,69.328882 C230.002403,77.4200806 221.97211,88.1515651 221.97211,112.011262 L221.97211,114.999701 L224.965138,114.999701 L256.391928,114.999701 L259.60644,114.999701 L259.377473,111.797589 C256.541579,72.1410031 273.221722,56.0871087 273.389332,55.9302157 L276.000748,53.4946379 L273.152882,51.3459502 Z" id="Page-1" fill="url(#linearGradient-1)"></path>
            <rect id="Rectangle-74-Copy" fill="#FAF8F4" x="0" y="0" width="120" height="160" rx="12"></rect>
            <path d="M29.1042242,86.2850288 L29.1042242,92.3257472 C29.1042242,93.1593663 29.780917,93.8359268 30.6113352,93.8359268 L87.8815538,93.8359268 C88.711972,93.8359268 89.3886648,93.1593663 89.3886648,92.3257472 L89.3886648,86.2850288 L92.4028869,86.2850288 L92.4028869,92.3257472 C92.4028869,94.8235842 90.3743154,96.856286 87.8815538,96.856286 L30.6113352,96.856286 C28.1185736,96.856286 26.0900021,94.8235842 26.0900021,92.3257472 L26.0900021,86.2850288 L29.1042242,86.2850288 Z M26.1728932,83.7660492 L24.5,81.2531104 C29.5563575,77.8763488 34.6805349,77.8763488 39.7368924,81.2531104 C43.7382721,83.9261283 47.6266186,83.9261283 51.6279983,81.2531104 C56.6361282,77.9080625 63.3638718,77.9080625 68.3720017,81.2531104 C72.3733814,83.9261283 76.2617279,83.9261283 80.2631076,81.2531104 C85.3194651,77.8763488 90.4436425,77.8763488 95.5,81.2531104 L93.8271068,83.7660492 C89.825727,81.0930313 85.9373806,81.0930313 81.9360008,83.7660492 C79.4070686,85.45443 76.8630652,86.2986204 74.3175547,86.2986204 C71.7720442,86.2986204 69.2280408,85.45443 66.6991085,83.7660492 C62.6917003,81.090011 57.3082997,81.090011 53.3008915,83.7660492 C48.2445341,87.1428108 43.1203566,87.1428108 38.0639992,83.7660492 C34.0626194,81.0930313 30.174273,81.0930313 26.1728932,83.7660492 L26.1728932,83.7660492 Z M62.9373594,114.978441 L61.4860115,114.976931 L60,114.976931 L58.5139885,114.976931 L57.0626406,114.978441 C38.0926343,114.978441 28.9896837,114.63261 27.7463171,102.897004 L60,102.897004 L92.2536829,102.897004 C91.0103163,114.63261 81.9073657,114.978441 62.9373594,114.978441 L62.9373594,114.978441 Z M24.5828911,99.8766452 C24.5828911,118.485078 38.8748249,117.9988 57.0626406,117.9988 C58.0302059,117.9988 59.0113352,117.99729 60,117.99729 C60.9886648,117.99729 61.9697941,117.9988 62.9373594,117.9988 C81.123668,117.9988 95.4171089,118.485078 95.4171089,99.8766452 L60,99.8766452 L24.5828911,99.8766452 Z M36.8839312,54.553135 C42.7119295,49.6948873 50.9226703,47.0203592 60,47.0203592 C69.0773297,47.0203592 77.2880705,49.6948873 83.1160688,54.553135 C88.4512418,58.9975936 91.57699,65.5865072 92.2597113,72.6934124 L60,72.6934124 L27.7402887,72.6934124 C28.42301,65.5865072 31.5487582,58.9975936 36.8839312,54.553135 L36.8839312,54.553135 Z M95.4171089,75.7137716 C95.4171089,56.1131506 79.5607939,44 60,44 C40.4392061,44 24.5828911,56.1131506 24.5828911,75.7137716 L60,75.7137716 L95.4171089,75.7137716 Z" id="Fill-1" fill="url(#linearGradient-1)"></path>
        </g>
    </g>
</svg>