<?xml version="1.0" encoding="UTF-8" standalone="no"?>
<svg width="66px" height="46px" viewBox="0 0 66 46" version="1.1" xmlns="http://www.w3.org/2000/svg" xmlns:xlink="http://www.w3.org/1999/xlink">
    <!-- Generator: Sketch 3.6.1 (26313) - http://www.bohemiancoding.com/sketch -->
    <title>24-taps</title>
    <desc>Created with Sketch.</desc>
    <defs></defs>
    <g id="Assets" stroke="none" stroke-width="1" fill="none" fill-rule="evenodd">
        <g id="24-taps" fill="#FAF8F4">
            <path d="M3.956,12.016 C5.044,7.344 8.308,4.208 13.108,4.208 C18.228,4.208 21.94,8.048 21.94,13.296 C21.94,15.92 20.98,18.672 17.332,23.024 L0.18,43.632 L0.18,46 L26.42,46 L26.42,42.352 L6.132,42.352 L20.532,24.944 C24.244,20.464 25.78,17.136 25.78,13.168 C25.78,5.936 20.468,0.56 12.98,0.56 C6.452,0.56 1.78,5.104 0.5,10.8 L3.956,12.016 Z M54.58,46 L58.42,46 L58.42,34.48 L65.78,34.48 L65.78,30.832 L58.42,30.832 L58.42,1.2 L55.86,1.2 L31.86,32.112 L31.86,34.48 L54.58,34.48 L54.58,46 Z M37.556,30.832 L54.58,8.88 L54.58,30.832 L37.556,30.832 Z"></path>
        </g>
    </g>
</svg>