<?xml version="1.0" encoding="UTF-8" standalone="no"?>
<svg width="48px" height="49px" viewBox="0 0 48 49" version="1.1" xmlns="http://www.w3.org/2000/svg" xmlns:xlink="http://www.w3.org/1999/xlink">
    <!-- Generator: Sketch 3.6.1 (26313) - http://www.bohemiancoding.com/sketch -->
    <title>pairing-burger</title>
    <desc>Created with Sketch.</desc>
    <defs></defs>
    <g id="Assets" stroke="none" stroke-width="1" fill="none" fill-rule="evenodd">
        <g id="pairing-burger" fill="#FAF8F4">
            <path d="M3.055,28 L3.055,32 C3.055,32.552 3.504,33 4.055,33 L42.055,33 C42.606,33 43.055,32.552 43.055,32 L43.055,28 L45.055,28 L45.055,32 C45.055,33.654 43.709,35 42.055,35 L4.055,35 C2.401,35 1.055,33.654 1.055,32 L1.055,28 L3.055,28 Z M1.11,26.332 L0,24.668 C3.355,22.432 6.755,22.432 10.11,24.668 C12.765,26.438 15.345,26.438 18,24.668 C21.323,22.453 25.787,22.453 29.11,24.668 C31.765,26.438 34.345,26.438 37,24.668 C40.355,22.432 43.755,22.432 47.11,24.668 L46,26.332 C43.345,24.562 40.765,24.562 38.11,26.332 C36.432,27.45 34.744,28.009 33.055,28.009 C31.366,28.009 29.678,27.45 28,26.332 C25.341,24.56 21.769,24.56 19.11,26.332 C15.755,28.568 12.355,28.568 9,26.332 C6.345,24.562 3.765,24.562 1.11,26.332 L1.11,26.332 Z M25.504,47 L24.541,46.999 L23.555,46.999 L22.569,46.999 L21.606,47 C9.019,47 2.979,46.771 2.154,39 L23.555,39 L44.956,39 C44.131,46.771 38.091,47 25.504,47 L25.504,47 Z M0.055,37 C0.055,49.322 9.538,49 21.606,49 C22.248,49 22.899,48.999 23.555,48.999 C24.211,48.999 24.862,49 25.504,49 C37.571,49 47.055,49.322 47.055,37 L23.555,37 L0.055,37 Z M8.217,6.988 C12.084,3.771 17.532,2 23.555,2 C29.578,2 35.026,3.771 38.893,6.988 C42.433,9.931 44.507,14.294 44.96,19 L23.555,19 L2.15,19 C2.603,14.294 4.677,9.931 8.217,6.988 L8.217,6.988 Z M47.055,21 C47.055,8.021 36.534,0 23.555,0 C10.576,0 0.055,8.021 0.055,21 L23.555,21 L47.055,21 Z"></path>
        </g>
    </g>
</svg>