<?xml version="1.0" encoding="UTF-8" standalone="no"?>
<svg width="37px" height="50px" viewBox="0 0 37 50" version="1.1" xmlns="http://www.w3.org/2000/svg" xmlns:xlink="http://www.w3.org/1999/xlink">
    <!-- Generator: Sketch 3.6.1 (26313) - http://www.bohemiancoding.com/sketch -->
    <title>pairing-goblet</title>
    <desc>Created with Sketch.</desc>
    <defs></defs>
    <g id="Assets" stroke="none" stroke-width="1" fill="none" fill-rule="evenodd">
        <g id="pairing-goblet" fill="#FAF8F4">
            <path d="M31.8208,22.9707 C28.7478,28.0917 22.5058,29.9997 18.9998,29.9997 L16.9998,29.9997 C13.5918,29.9997 7.3988,28.1277 4.3038,22.9707 C0.9238,17.3377 1.8008,13.4357 3.5058,8.9997 L32.6188,8.9997 C34.3238,13.4357 35.2008,17.3367 31.8208,22.9707 M6.1248,1.9997 L29.9998,1.9997 C30.5238,3.7687 31.1818,5.4057 31.8248,6.9997 L4.2998,6.9997 C4.9438,5.4057 5.6018,3.7687 6.1248,1.9997 M31.5368,-0.0003 L4.5888,-0.0003 C2.6318,8.3177 -3.4102,13.9997 2.5898,23.9997 C6.0888,29.8307 12.9998,31.9997 16.9998,31.9997 L16.9998,47.9997 L6.9998,47.9997 L6.9998,49.9997 L28.9998,49.9997 L28.9998,47.9997 L18.9998,47.9997 L18.9998,31.9997 C22.9998,31.9997 30.0368,29.8307 33.5358,23.9997 C39.5358,13.9997 33.4928,8.3177 31.5368,-0.0003"></path>
        </g>
    </g>
</svg>