<?xml version="1.0" encoding="UTF-8" standalone="no"?>
<svg width="36px" height="67px" viewBox="0 0 36 67" version="1.1" xmlns="http://www.w3.org/2000/svg" xmlns:xlink="http://www.w3.org/1999/xlink">
    <!-- Generator: Sketch 3.6.1 (26313) - http://www.bohemiancoding.com/sketch -->
    <title>pairing-wine</title>
    <desc>Created with Sketch.</desc>
    <defs></defs>
    <g id="Assets" stroke="none" stroke-width="1" fill="none" fill-rule="evenodd">
        <g id="pairing-wine" transform="translate(0.000000, -1.000000)" fill="#FAF8F4">
            <path d="M32.8271,33.1875 C29.3751,40.9535 23.9001,42.0005 19.0001,42.0005 L17.0001,42.0005 C12.0991,42.0005 6.6251,40.9535 3.1741,33.1875 C2.3521,31.3405 2.0171,29.2495 2.0081,27.0005 L33.9931,27.0005 C33.9831,29.2495 33.6481,31.3405 32.8271,33.1875 M4.9681,11.0815 C5.6891,8.4085 6.4311,5.6585 6.9901,3.0005 L29.0101,3.0005 C29.5691,5.6585 30.3101,8.4085 31.0321,11.0815 C32.3081,15.8135 33.6021,20.6375 33.9161,24.9995 L2.0841,24.9995 C2.3971,20.6375 3.6911,15.8135 4.9681,11.0815 M30.6541,0.9995 L5.3461,0.9995 C3.3461,12.0005 -2.6539,24.9995 1.3461,33.9995 C5.3461,43.0005 12.0001,44.0005 17.0001,44.0005 L17.0001,66.0005 L7.0001,66.0005 L7.0001,68.0005 L29.0001,68.0005 L29.0001,66.0005 L19.0001,66.0005 L19.0001,44.0005 C24.0001,44.0005 30.6541,43.0005 34.6541,33.9995 C38.6541,24.9995 32.6541,12.0005 30.6541,0.9995"></path>
        </g>
    </g>
</svg>