<?xml version="1.0" encoding="UTF-8" standalone="no"?>
<svg width="22px" height="20px" viewBox="0 0 22 20" version="1.1" xmlns="http://www.w3.org/2000/svg" xmlns:xlink="http://www.w3.org/1999/xlink">
    <!-- Generator: Sketch 3.6.1 (26313) - http://www.bohemiancoding.com/sketch -->
    <title>add-to-cart</title>
    <desc>Created with Sketch.</desc>
    <defs></defs>
    <g id="Assets" stroke="none" stroke-width="1" fill="none" fill-rule="evenodd" fill-opacity="0.6">
        <g id="add-to-cart" fill="#FAF8F4">
            <path d="M10.6465,6.854 C10.737,6.9445 10.8625,7 11,7 C11.138,7 11.263,6.9445 11.3535,6.854 L13.3535,4.854 C13.4445,4.763 13.5,4.638 13.5,4.5 C13.5,4.224 13.2765,4 13,4 C12.8625,4 12.7375,4.0565 12.6465,4.1465 L11.5,5.293 L11.5,0.5 C11.5,0.224 11.2765,0 11,0 C10.7235,0 10.5,0.224 10.5,0.5 L10.5,5.293 L9.3535,4.1465 C9.263,4.0565 9.138,4 9,4 C8.7235,4 8.5,4.224 8.5,4.5 C8.5,4.638 8.5555,4.763 8.6465,4.854 L10.6465,6.854 L10.6465,6.854 Z M21,8 L1,8 C0.448,8 0,8.448 0,9 L0,10 C0,10.5525 0.448,11 1,11 L1.2,11 L3.0145,19.6215 L3.024,19.6195 C3.0785,19.836 3.266,20 3.5,20 L18.5,20 C18.734,20 18.9215,19.836 18.976,19.6195 L18.9855,19.6215 L20.8,11 L21,11 C21.552,11 22,10.5525 22,10 L22,9 C22,8.448 21.552,8 21,8 L21,8 Z M2.221,11 L5.658,11 L5.9735,13 L2.642,13 L2.221,11 L2.221,11 Z M2.8525,14 L6.132,14 L6.447,16 L3.2735,16 L2.8525,14 L2.8525,14 Z M3.905,19 L3.4845,17 L6.6055,17 L6.921,19 L3.905,19 L3.905,19 Z M10.5,19 L7.921,19 L7.6055,17 L10.5,17 L10.5,19 L10.5,19 Z M10.5,16 L7.447,16 L7.132,14 L10.5,14 L10.5,16 L10.5,16 Z M10.5,13 L6.9735,13 L6.658,11 L10.5,11 L10.5,13 L10.5,13 Z M14.079,19 L11.5,19 L11.5,17 L14.3945,17 L14.079,19 L14.079,19 Z M14.553,16 L11.5,16 L11.5,14 L14.868,14 L14.553,16 L14.553,16 Z M11.5,13 L11.5,11 L15.342,11 L15.0265,13 L11.5,13 L11.5,13 Z M18.095,19 L15.079,19 L15.3945,17 L18.5155,17 L18.095,19 L18.095,19 Z M18.7265,16 L15.553,16 L15.868,14 L19.1475,14 L18.7265,16 L18.7265,16 Z M19.358,13 L16.0265,13 L16.342,11 L19.779,11 L19.358,13 L19.358,13 Z M1,9 L21,9 L21,10 L1,10 L1,9 Z"></path>
        </g>
    </g>
</svg>