<?xml version="1.0" encoding="UTF-8" standalone="no"?>
<svg width="20px" height="10px" viewBox="0 0 20 10" version="1.1" xmlns="http://www.w3.org/2000/svg" xmlns:xlink="http://www.w3.org/1999/xlink">
    <!-- Generator: Sketch 3.6.1 (26313) - http://www.bohemiancoding.com/sketch -->
    <title>arrow-down</title>
    <desc>Created with Sketch.</desc>
    <defs></defs>
    <g id="Assets" stroke="none" stroke-width="1" fill="none" fill-rule="evenodd">
        <g id="arrow-down" fill="#FAF8F4">
            <path d="M19.5,0 C19.362,0 19.237,0.0565 19.1465,0.1465 L10,8.8115 L0.8535,0.1465 C0.763,0.0565 0.638,0 0.5,0 C0.2235,0 0,0.2235 0,0.5 C0,0.638 0.0555,0.763 0.1465,0.8535 L9.6465,9.8535 C9.737,9.9445 9.862,10 10,10 C10.138,10 10.263,9.9445 10.3535,9.8535 L19.8535,0.8535 C19.9445,0.763 20,0.638 20,0.5 C20,0.2235 19.7765,0 19.5,0" id="down"></path>
        </g>
    </g>
</svg>