<?xml version="1.0" encoding="UTF-8" standalone="no"?>
<svg width="6px" height="12px" viewBox="0 0 6 12" version="1.1" xmlns="http://www.w3.org/2000/svg" xmlns:xlink="http://www.w3.org/1999/xlink">
    <!-- Generator: Sketch 3.6.1 (26313) - http://www.bohemiancoding.com/sketch -->
    <title>arrow-right</title>
    <desc>Created with Sketch.</desc>
    <defs></defs>
    <g id="Assets" stroke="none" stroke-width="1" fill="none" fill-rule="evenodd">
        <g id="arrow-right" fill="#FAF8F4">
            <path d="M0.5,0 C0.224,0 -1.13686838e-13,0.224 -1.13686838e-13,0.5 C-1.13686838e-13,0.638 0.056,0.7635 0.1465,0.8535 L4.825,6 L0.1465,11.1465 C0.056,11.2375 -1.13686838e-13,11.3625 -1.13686838e-13,11.5 C-1.13686838e-13,11.7765 0.224,12 0.5,12 C0.638,12 0.763,11.9445 0.8535,11.8535 L5.8535,6.3535 C5.944,6.263 6,6.138 6,6 C6,5.8625 5.944,5.7375 5.8535,5.6465 L0.8535,0.1465 C0.763,0.056 0.638,0 0.5,0 Z"></path>
        </g>
    </g>
</svg>
