<?xml version="1.0" encoding="UTF-8" standalone="no"?>
<svg width="20px" height="22px" viewBox="0 0 20 22" version="1.1" xmlns="http://www.w3.org/2000/svg" xmlns:xlink="http://www.w3.org/1999/xlink">
    <!-- Generator: Sketch 3.6.1 (26313) - http://www.bohemiancoding.com/sketch -->
    <title>bag</title>
    <desc>Created with Sketch.</desc>
    <defs></defs>
    <g id="Assets" stroke="none" stroke-width="1" fill="none" fill-rule="evenodd" opacity="1.0">
        <g id="bag" fill="#FAF8F4">
            <path d="M19.987,21.435 L19.9955,21.434 L17.9955,6.434 L17.987,6.435 C17.954,6.1915 17.753,6 17.5,6 L14,6 L14,4 C14,1.791 12.209,0 10,0 C7.791,0 6,1.791 6,4 L6,6 L2.5,6 C2.247,6 2.046,6.1915 2.013,6.435 L2.0045,6.434 L0.0045,21.434 L0.013,21.435 C0.0095,21.457 0,21.477 0,21.5 C0,21.7765 0.2235,22 0.5,22 L19.5,22 C19.7765,22 20,21.7765 20,21.5 C20,21.477 19.9905,21.457 19.987,21.435 L19.987,21.435 Z M7,4 C7,2.3435 8.3435,1 10,1 C11.6575,1 13,2.3435 13,4 L13,6 L7,6 L7,4 L7,4 Z M2.9375,7 L6,7 L6,9.1385 C5.702,9.312 5.5,9.631 5.5,10 C5.5,10.552 5.9475,11 6.5,11 C7.052,11 7.5,10.552 7.5,10 C7.5,9.631 7.298,9.312 7,9.1385 L7,7 L13,7 L13,9.1385 C12.702,9.312 12.5,9.631 12.5,10 C12.5,10.552 12.948,11 13.5,11 C14.052,11 14.5,10.552 14.5,10 C14.5,9.631 14.298,9.312 14,9.1385 L14,7 L17.0625,7 L18.662,19 L1.338,19 L2.9375,7 L2.9375,7 Z M1.0715,21 L1.204,20 L18.796,20 L18.9285,21 L1.0715,21 L1.0715,21 Z"></path>
        </g>
    </g>
</svg>
