<?xml version="1.0" encoding="UTF-8" standalone="no"?>
<svg width="44px" height="44px" viewBox="0 0 44 44" version="1.1" xmlns="http://www.w3.org/2000/svg" xmlns:xlink="http://www.w3.org/1999/xlink">
    <!-- Generator: Sketch 3.6.1 (26313) - http://www.bohemiancoding.com/sketch -->
    <title>call</title>
    <desc>Created with Sketch.</desc>
    <defs></defs>
    <g id="Home" stroke="none" stroke-width="1" fill="none" fill-rule="evenodd">
        <g id="home--mobile" transform="translate(-60.000000, -334.000000)" fill="#FAF8F4">
            <g id="1">
                <g id="call" transform="translate(60.000000, 334.000000)">
                    <path d="M24.0054531,2 C33.9437426,2 42.0005453,10.06 42.0005453,20.002 C42.0005453,20.553 42.4474234,21 43.0002727,21 C43.5521221,21 44,20.553 44,20.002 C44,8.954 35.0484413,0 24.0054531,0 C23.4526038,0 23.0057257,0.448 23.0057257,1 C23.0057257,1.554 23.4526038,2 24.0054531,2 L24.0054531,2 Z M24.0054531,12 C28.4222485,12 32.0032718,15.582 32.0032718,20.002 C32.0032718,20.553 32.45015,21 33.0029992,21 C33.5548487,21 34.0027265,20.553 34.0027265,20.002 C34.0027265,14.478 29.5269472,10 24.0054531,10 C23.4526038,10 23.0057257,10.448 23.0057257,11 C23.0057257,11.553 23.4526038,12 24.0054531,12 L24.0054531,12 Z M24.0054531,22 C25.109152,22 26.0049078,21.104 26.0049078,20.002 C26.0049078,18.897 25.109152,18 24.0054531,18 C22.9017541,18 22.0059984,18.897 22.0059984,20.002 C22.0059984,21.104 22.9017541,22 24.0054531,22 L24.0054531,22 Z M43.9720076,34.984 C43.9720076,34.156 43.6360992,33.407 43.0932473,32.863 C42.9342906,32.703 42.75334,32.568 42.5603926,32.448 L34.0967009,25.863 C33.5528492,25.321 32.8040534,24.984 31.9752795,24.984 C31.2974643,24.984 30.6786331,25.219 30.1787694,25.601 L27.8164137,27.981 L27.8104153,27.975 C27.4445151,28.384 26.9186585,28.647 26.32682,28.647 C25.6500045,28.647 25.0551668,28.309 24.6922657,27.795 C24.680269,27.815 24.6632737,27.833 24.6512769,27.854 C21.3831682,25.483 18.4879578,22.628 16.1206035,19.357 C16.1435972,19.341 16.1645915,19.323 16.1875852,19.308 C15.6667273,18.944 15.3238208,18.341 15.3238208,17.656 C15.3238208,17.044 15.6027447,16.502 16.0336272,16.134 L16.030628,16.13 L18.3819867,13.796 C18.7628829,13.298 18.9948196,12.679 18.9948196,12 C18.9948196,11.172 18.6589112,10.422 18.1160593,9.879 L11.5328547,1.413 C11.4128874,1.221 11.2779242,1.039 11.1179678,0.879 C10.5751159,0.337 9.82532037,0 8.99754612,0 C4.99863674,0 0,4.701 0,10.5 C0,12.106 0.371898573,13.623 1.01572298,14.985 L0.982731982,15.019 C6.99809143,27 16.9953649,37 28.9750977,43.017 L29.0080887,42.984 C30.3687176,43.63 31.8843043,44 33.4908661,44 C39.288285,44 43.9880033,39 43.9880033,35 C43.9880033,34.995 43.9870035,34.991 43.9870035,34.984 L43.9720076,34.984 L43.9720076,34.984 Z M33.4908661,42 C32.237208,42 31.0165409,41.723 29.8638553,41.177 C29.7558848,41.126 29.6439153,41.086 29.5309461,41.058 C18.1660456,35.258 8.74861401,25.839 2.9501954,14.473 C2.9172044,14.356 2.87621558,14.24 2.82323003,14.13 C2.27637917,12.974 1.99945469,11.754 1.99945469,10.5 C1.99945469,5.65 6.24529674,2 8.99754612,2 C9.35744797,2 9.59538308,2.184 9.70435336,2.294 C9.72934654,2.319 9.77433427,2.371 9.84031628,2.478 C9.87530673,2.533 9.9142961,2.588 9.95528492,2.641 L16.5374898,11.108 C16.5884759,11.173 16.6434609,11.235 16.7024448,11.294 C16.8114151,11.402 16.9953649,11.641 16.9953649,12 C16.9953649,12.177 16.947378,12.344 16.8504044,12.498 L14.6220122,14.709 C14.6120149,14.72 14.6020176,14.729 14.5920204,14.74 C13.7842407,15.5 13.3243661,16.554 13.3243661,17.656 C13.3243661,18.69 13.7252567,19.674 14.4220667,20.412 C14.4470599,20.451 14.4730528,20.491 14.5010452,20.529 C16.958375,23.926 19.9775516,26.934 23.4765973,29.473 C23.5035899,29.492 23.5305826,29.511 23.5585749,29.53 C24.2983732,30.238 25.2881032,30.646 26.32682,30.646 C27.3705353,30.646 28.3772607,30.229 29.1240571,29.494 C29.1620467,29.462 29.2000364,29.426 29.2360265,29.389 L31.4754158,27.132 C31.632373,27.035 31.8003272,26.985 31.9752795,26.985 C32.3351813,26.985 32.5731164,27.168 32.6820867,27.278 C32.7410706,27.337 32.8030537,27.391 32.868036,27.444 L41.3327274,34.028 C41.3867127,34.069 41.4436972,34.109 41.5016814,34.145 C41.6076525,34.211 41.6556394,34.254 41.6796328,34.277 C41.7896028,34.387 41.9725529,34.625 41.9725529,34.984 C41.9725529,35.052 41.9765518,35.119 41.9835499,35.187 C41.8265927,37.94 38.2325729,42 33.4908661,42 L33.4908661,42 Z"></path>
                </g>
            </g>
        </g>
    </g>
</svg>
