<?xml version="1.0" encoding="UTF-8" standalone="no"?>
<svg width="40px" height="40px" viewBox="0 0 40 40" version="1.1" xmlns="http://www.w3.org/2000/svg" xmlns:xlink="http://www.w3.org/1999/xlink">
    <!-- Generator: Sketch 3.6.1 (26313) - http://www.bohemiancoding.com/sketch -->
    <title>close</title>
    <desc>Created with Sketch.</desc>
    <defs></defs>
    <g id="Assets" stroke="none" stroke-width="1" fill="none" fill-rule="evenodd">
        <g id="close">
            <path d="M1,20 L1,20 C1,30.4949813 9.50573212,39 20,39 C30.4949813,39 39,30.4942679 39,20 C39,9.50501867 30.4942679,1 20,1 C9.50501867,1 1,9.50573212 1,20 L1,20 Z M0,20 C0,8.954305 8.95187636,0 20,0 C31.045695,0 40,8.95187636 40,20 C40,31.045695 31.0481236,40 20,40 C8.954305,40 0,31.0481236 0,20 L0,20 Z" id="Rectangle-2-Copy-2" fill="#807D7B" opacity="0.6"></path>
            <path d="M27.3551567,13.3438479 C27.4451276,13.2543714 27.5,13.130785 27.5,12.9943456 C27.5,12.7214668 27.2790275,12.5 27.0056544,12.5 C26.8697094,12.5 26.746123,12.5553667 26.6561521,12.6453376 L20,19.3014897 L13.3438479,12.6453376 C13.2543714,12.5553667 13.130785,12.5 12.9943456,12.5 C12.7209725,12.5 12.5,12.7214668 12.5,12.9943456 C12.5,13.130785 12.5548724,13.2543714 12.6448433,13.3443423 L19.3009953,20 L12.6448433,26.6566464 C12.5548724,26.7456286 12.5,26.8697094 12.5,27.0056544 C12.5,27.2790275 12.7209725,27.5 12.9943456,27.5 C13.130785,27.5 13.2543714,27.4451276 13.3438479,27.3551567 L20,20.6990047 L26.6561521,27.3551567 C26.746123,27.4451276 26.8697094,27.5 27.0056544,27.5 C27.2790275,27.5 27.5,27.2790275 27.5,27.0056544 C27.5,26.8697094 27.4451276,26.7456286 27.3551567,26.6566464 L20.6990047,20 L27.3551567,13.3438479 Z" id="+" fill="#383635"></path>
        </g>
    </g>
</svg>
