<?xml version="1.0" encoding="UTF-8" standalone="no"?>
<svg width="39px" height="39px" viewBox="0 0 39 39" version="1.1" xmlns="http://www.w3.org/2000/svg" xmlns:xlink="http://www.w3.org/1999/xlink">
    <!-- Generator: Sketch 3.6.1 (26313) - http://www.bohemiancoding.com/sketch -->
    <title>close-dark</title>
    <desc>Created with Sketch.</desc>
    <defs></defs>
    <g id="Assets" stroke="none" stroke-width="1" fill="none" fill-rule="evenodd">
        <g id="close-dark">
            <rect id="Rectangle-2-Copy-2" stroke-opacity="0.6" stroke="#807D7B" x="0" y="0" width="39" height="39" rx="20"></rect>
            <path d="M26.8551567,12.8438479 C26.9451276,12.7543714 27,12.630785 27,12.4943456 C27,12.2214668 26.7790275,12 26.5056544,12 C26.3697094,12 26.246123,12.0553667 26.1561521,12.1453376 L19.5,18.8014897 L12.8438479,12.1453376 C12.7543714,12.0553667 12.630785,12 12.4943456,12 C12.2209725,12 12,12.2214668 12,12.4943456 C12,12.630785 12.0548724,12.7543714 12.1448433,12.8443423 L18.8009953,19.5 L12.1448433,26.1566464 C12.0548724,26.2456286 12,26.3697094 12,26.5056544 C12,26.7790275 12.2209725,27 12.4943456,27 C12.630785,27 12.7543714,26.9451276 12.8438479,26.8551567 L19.5,20.1990047 L26.1561521,26.8551567 C26.246123,26.9451276 26.3697094,27 26.5056544,27 C26.7790275,27 27,26.7790275 27,26.5056544 C27,26.3697094 26.9451276,26.2456286 26.8551567,26.1566464 L20.1990047,19.5 L26.8551567,12.8438479 Z" id="+" fill="#383635"></path>
        </g>
    </g>
</svg>