<?xml version="1.0" encoding="UTF-8" standalone="no"?>
<svg width="15px" height="15px" viewBox="0 0 15 15" version="1.1" xmlns="http://www.w3.org/2000/svg" xmlns:xlink="http://www.w3.org/1999/xlink">
    <!-- Generator: Sketch 3.6.1 (26313) - http://www.bohemiancoding.com/sketch -->
    <title>collapse--dark</title>
    <desc>Created with Sketch.</desc>
    <defs></defs>
    <g id="Assets" stroke="none" stroke-width="1" fill="none" fill-rule="evenodd">
        <g id="collapse--dark" transform="translate(7.435029, 7.435029) rotate(-45.000000) translate(-7.435029, -7.435029) translate(-2.064971, -2.064971)" fill="#807D7B">
            <path d="M10,9 L10,0.508204103 C10,0.226615146 9.77614237,1.1226164e-12 9.5,1.12256567e-12 C9.23193359,1.12251643e-12 9,0.227530727 9,0.508204103 L9,9 L0.508204103,9 C0.226615146,9 1.13686838e-12,9.22385763 1.13686838e-12,9.5 C1.13686838e-12,9.76806641 0.227530727,10 0.508204103,10 L9,10 L9,18.4917959 C9,18.7733849 9.22385763,19 9.5,19 C9.76806641,19 10,18.7724693 10,18.4917959 L10,10 L18.4917959,10 C18.7733849,10 19,9.77614237 19,9.5 C19,9.23193359 18.7724693,9 18.4917959,9 L10,9 Z" id="+"></path>
        </g>
    </g>
</svg>
