<?xml version="1.0" encoding="UTF-8" standalone="no"?>
<svg width="51px" height="50px" viewBox="0 0 51 50" version="1.1" xmlns="http://www.w3.org/2000/svg" xmlns:xlink="http://www.w3.org/1999/xlink">
    <!-- Generator: Sketch 3.6.1 (26313) - http://www.bohemiancoding.com/sketch -->
    <title>tbr-crest-dark</title>
    <desc>Created with Sketch.</desc>
    <defs></defs>
    <g id="Assets" stroke="none" stroke-width="1" fill="none" fill-rule="evenodd">
        <g id="tbr-crest-dark" fill="#383736">
            <path d="M3,34.4997 L5,34.4997 L5,24.4997 L8,24.4997 L8,22.4997 L8,16.4997 L6,16.4997 L6,22.4997 L5,22.4997 L5,16.4997 L3,16.4997 L3,22.4997 L2,22.4997 L2,16.4997 L0,16.4997 L0,22.4997 L0,24.4997 L3,24.4997 L3,34.4997 Z M22.08,2.4997 L22.157,3.4997 L27.843,3.4997 L27.92,2.4997 L22.08,2.4997 Z M27.689,5.4997 L22.311,5.4997 L22.926,13.4997 L27.074,13.4997 L27.689,5.4997 Z M21.074,15.4997 L19.92,0.4997 L30.08,0.4997 L28.926,15.4997 L21.074,15.4997 Z M48.436,3.6797 L46.818,2.0657 L25,23.8847 L3.182,2.0657 L1.564,3.6797 L23.384,25.5007 L1.565,47.3197 L3.182,48.9347 L25,27.1157 L46.818,48.9347 L48.435,47.3197 L26.616,25.5007 L48.436,3.6797 Z M49.586,21.5007 L51,22.9147 L47,26.9147 L47,34.4997 L45,34.4997 L45,26.9147 L41,22.9137 L42.414,21.4997 L45,24.0867 L45,22.2577 L41,18.2577 L42.414,16.8437 L45,19.4297 L45,16.4997 L47,16.4997 L47,19.4297 L49.586,16.8437 L51,18.2577 L47,22.2577 L47,24.0867 L49.586,21.5007 Z M30.361,44.025 C30.174,43.875 29.973,43.764 29.757,43.692 C29.542,43.62 29.337,43.554 29.145,43.494 L29.253,43.458 C29.446,43.422 29.644,43.362 29.848,43.278 C30.051,43.194 30.238,43.077 30.406,42.927 C30.574,42.777 30.714,42.608 30.829,42.392 C30.943,42.176 31,41.912 31,41.6 L31,39.894 C31,39.426 30.937,39.039 30.811,38.733 C30.685,38.427 30.496,38.181 30.244,37.995 C29.992,37.809 29.67,37.68 29.281,37.608 C28.891,37.536 28.438,37.5 27.921,37.5 L19,37.5 L19,49.5 L27.813,49.5 C28.834,49.5 29.62,49.314 30.171,48.942 C30.723,48.57 31,47.976 31,47.16 L31,45.762 C31,45.294 30.939,44.925 30.82,44.655 C30.7,44.385 30.546,44.175 30.361,44.025 Z M21,39.516 L28.118,39.516 C28.43,39.516 28.655,39.564 28.794,39.66 C28.931,39.756 29,39.906 29,40.11 L29,41.906 C29,42.146 28.931,42.305 28.794,42.383 C28.655,42.461 28.43,42.5 28.118,42.5 L21,42.5 L21,39.516 Z M29,46.74577 C29,47.05777 28.934,47.26477 28.802,47.36677 C28.67,47.46877 28.478,47.51977 28.226,47.51977 L21,47.5173974 L21,44.5 L28.226,44.5023726 C28.478,44.5023726 28.67,44.5533726 28.802,44.6553726 C28.934,44.7573726 29,44.9703726 29,45.2943726 L29,46.74577 Z" id="tbr-crest"></path>
        </g>
    </g>
</svg>