<?xml version="1.0" encoding="UTF-8" standalone="no"?>
<svg width="102px" height="98px" viewBox="0 0 102 98" version="1.1" xmlns="http://www.w3.org/2000/svg" xmlns:xlink="http://www.w3.org/1999/xlink">
    <!-- Generator: Sketch 3.6.1 (26313) - http://www.bohemiancoding.com/sketch -->
    <title>tbr-crest</title>
    <desc>Created with Sketch.</desc>
    <defs></defs>
    <g id="Assets" stroke="none" stroke-width="1" fill="none" fill-rule="evenodd">
        <g id="tbr-crest" fill="#FAF8F4">
            <g id="Page-1">
                <path d="M57.9999999,92.279663 C57.9999999,92.903663 57.8679999,93.317663 57.6039999,93.521663 C57.3399999,93.725663 56.9559999,93.827663 56.4519999,93.827663 L42.0008,93.8244 L42.0008,88.0004 L56.4519999,88.003663 C56.9559999,88.003663 57.3399999,88.105663 57.6039999,88.309663 C57.8679999,88.513663 57.9999999,88.939663 57.9999999,89.587663 L57.9999999,92.279663 Z M42.0008,78.0324 L56.2368,78.0324 C56.8608,78.0324 57.3108,78.1284 57.5888,78.3204 C57.8628,78.5124 58.0008,78.8124 58.0008,79.2204 L58.0008,82.8124 C58.0008,83.2924 57.8628,83.6104 57.5888,83.7664 C57.3108,83.9224 56.8608,84.0004 56.2368,84.0004 L42.0008,84.0004 L42.0008,78.0324 Z M60.7228,87.0504 C60.3488,86.7504 59.9468,86.5284 59.5148,86.3844 C59.0848,86.2404 58.6748,86.1084 58.2908,85.9884 L58.5068,85.9164 C58.8928,85.8444 59.2888,85.7244 59.6968,85.5564 C60.1028,85.3884 60.4768,85.1544 60.8128,84.8544 C61.1488,84.5544 61.4288,84.2164 61.6588,83.7844 C61.8868,83.3524 62.0008,82.8244 62.0008,82.2004 L62.0008,78.7884 C62.0008,77.8524 61.8748,77.0784 61.6228,76.4664 C61.3708,75.8544 60.9928,75.3624 60.4888,74.9904 C59.9848,74.6184 59.3408,74.3604 58.5628,74.2164 C57.7828,74.0724 56.8768,74.0004 55.8428,74.0004 L38.0008,74.0004 L38.0008,98.0004 L55.6268,98.0004 C57.6688,98.0004 59.2408,97.6284 60.3428,96.8844 C61.4468,96.1404 62.0008,94.9524 62.0008,93.3204 L62.0008,90.5244 C62.0008,89.5884 61.8788,88.8504 61.6408,88.3104 C61.4008,87.7704 61.0928,87.3504 60.7228,87.0504 Z M12.0006,31.9994 L12.0006,43.9994 L10.0006,43.9994 L10.0006,31.9994 L5.9986,31.9994 L5.9986,43.9994 L3.9986,43.9994 L3.9986,31.9994 L0.0006,31.9994 L0.0006,43.9994 L0.0006,47.9994 L5.9986,47.9994 L5.9986,67.9994 L10.0006,67.9994 L10.0006,47.9994 L16.0006,47.9994 L16.0006,43.9994 L16.0006,31.9994 L12.0006,31.9994 Z M39.8394,0.0008 L42.1494,29.9988 L57.8514,29.9988 L60.1594,0.0008 L39.8394,0.0008 Z M44.1594,4.0008 L55.8394,4.0008 L55.6854,6.0008 L44.3134,6.0008 L44.1594,4.0008 Z M44.6194,9.9988 L55.3794,9.9988 L54.1474,26.0008 L45.8514,26.0008 L44.6194,9.9988 Z M50.0004,46.7702 L6.3624,3.1302 L3.1284,6.3602 L46.7684,50.0002 L3.1304,93.6382 L6.3624,96.8702 L50.0004,53.2322 L93.6364,96.8702 L96.8684,93.6382 L53.2324,50.0002 L96.8704,6.3602 L93.6364,3.1302 L50.0004,46.7702 Z M90,31.9994 L90,37.8594 L84.828,32.6874 L82,35.5154 L90,43.5154 L90,47.1734 L84.828,41.9994 L82,44.8274 L90,52.8294 L90,67.9994 L94,67.9994 L94,52.8294 L102,44.8294 L99.17,41.9994 L94,47.1734 L94,43.5154 L102,35.5154 L99.17,32.6874 L94,37.8594 L94,31.9994 L90,31.9994 Z" id="Fill-5"></path>
            </g>
        </g>
    </g>
</svg>