<?xml version="1.0" encoding="UTF-8" standalone="no"?>
<svg width="77px" height="75px" viewBox="0 0 77 75" version="1.1" xmlns="http://www.w3.org/2000/svg" xmlns:xlink="http://www.w3.org/1999/xlink">
    <!-- Generator: Sketch 3.6.1 (26313) - http://www.bohemiancoding.com/sketch -->
    <title>crest--footer</title>
    <desc>Created with Sketch.</desc>
    <defs></defs>
    <g id="Assets" stroke="none" stroke-width="1" fill="none" fill-rule="evenodd" opacity="0.5">
        <g id="crest--footer" fill="#807D7B">
            <path d="M4.52941176,51.8415842 L7.54901961,51.8415842 L7.54901961,36.5940594 L12.0784314,36.5940594 L12.0784314,33.5445545 L12.0784314,24.3960396 L9.05882353,24.3960396 L9.05882353,33.5445545 L7.54901961,33.5445545 L7.54901961,24.3960396 L4.52941176,24.3960396 L4.52941176,33.5445545 L3.01960784,33.5445545 L3.01960784,24.3960396 L0,24.3960396 L0,33.5445545 L0,36.5940594 L4.52941176,36.5940594 L4.52941176,51.8415842 Z M33.3364706,3.04950495 L33.4527255,4.57425743 L42.0374706,4.57425743 L42.1537255,3.04950495 L33.3364706,3.04950495 Z M41.8049608,7.62376238 L33.6852353,7.62376238 L34.6137647,19.8217822 L40.8764314,19.8217822 L41.8049608,7.62376238 Z M31.8176078,22.8712871 L30.0752941,0 L45.414902,0 L43.6725882,22.8712871 L31.8176078,22.8712871 Z M73.1288627,4.84871287 L70.686,2.38776238 L37.745098,35.6563366 L4.80419608,2.38776238 L2.36133333,4.84871287 L35.3052549,38.1203366 L2.36284314,71.3889109 L4.80419608,73.8513861 L37.745098,40.5828119 L70.686,73.8513861 L73.1273529,71.3889109 L40.1849412,38.1203366 L73.1288627,4.84871287 Z M74.8651373,32.0213267 L77,34.1773267 L70.9607843,40.2763366 L70.9607843,51.8415842 L67.9411765,51.8415842 L67.9411765,40.2763366 L61.9019608,34.175802 L64.0368235,32.019802 L67.9411765,35.9643366 L67.9411765,33.1755644 L61.9019608,27.0765545 L64.0368235,24.9205545 L67.9411765,28.8635644 L67.9411765,24.3960396 L70.9607843,24.3960396 L70.9607843,28.8635644 L74.8651373,24.9205545 L77,27.0765545 L70.9607843,33.1755644 L70.9607843,35.9643366 L74.8651373,32.0213267 Z M45.1411264,65.8106623 C44.8186264,65.7026623 44.5111264,65.6036623 44.2231264,65.5136623 L44.3851264,65.4596623 C44.6746264,65.4056623 44.9716264,65.3156623 45.2776264,65.1896623 C45.5821264,65.0636623 45.8626264,64.8881623 46.1146264,64.6631623 C46.3666264,64.4381623 46.5766264,64.1846623 46.7491264,63.8606623 C46.9201264,63.5366623 47.0056264,63.1406623 47.0056264,62.6726623 L47,60.591 C47,59.889 46.9055,59.3085 46.7165,58.8495 C46.5275,58.3905 46.244,58.0215 45.866,57.7425 C45.488,57.4635 45.005,57.27 44.4215,57.162 C43.8365,57.054 43.157,57 42.3815,57 L29,57 L29,75 L42.2195,75 C43.751,75 44.93,74.721 45.7565,74.163 C46.5845,73.605 47,72.714 47,71.49 L47.0056264,68.9156623 C47.0056264,68.2136623 46.9141264,67.6601623 46.7356264,67.2551623 C46.5556264,66.8501623 46.3246264,66.5351623 46.0471264,66.3101623 C45.7666264,66.0851623 45.4651264,65.9186623 45.1411264,65.8106623 Z M44,70.7174378 C44,71.2344396 43.8981219,71.5774504 43.6943658,71.7464703 C43.4906097,71.9154901 43.1942372,72 42.8052483,72 L32,72 L32,67 L42.8052483,67 C43.1942372,67 43.4906097,67.0845099 43.6943658,67.2535297 C43.8981219,67.4225496 44,67.7755028 44,68.3123893 L44,70.7174378 Z M32,60 L42.677,60 C43.145,60 43.4825,60.0643432 43.691,60.1930295 C43.8965,60.3217158 44,60.5227882 44,60.7962466 L44,63.2037534 C44,63.5254692 43.8965,63.7386059 43.691,63.8431635 C43.4825,63.9477212 43.145,64 42.677,64 L32,64 L32,60 Z" id="tbr-crest-footer"></path>
        </g>
    </g>
</svg>
