<?xml version="1.0" encoding="UTF-8" standalone="no"?>
<svg width="51px" height="49px" viewBox="0 0 51 49" version="1.1" xmlns="http://www.w3.org/2000/svg" xmlns:xlink="http://www.w3.org/1999/xlink">
    <!-- Generator: Sketch 3.6.1 (26313) - http://www.bohemiancoding.com/sketch -->
    <title>tbr-crest-order</title>
    <desc>Created with Sketch.</desc>
    <defs></defs>
    <g id="Assets" stroke="none" stroke-width="1" fill="none" fill-rule="evenodd" fill-opacity="0.3">
        <g id="tbr-crest-order" fill="#807D7B">
            <path d="M3,34 L5,34 L5,24 L8,24 L8,22 L8,16 L6,16 L6,22 L5,22 L5,16 L3,16 L3,22 L2,22 L2,16 L0,16 L0,22 L0,24 L3,24 L3,34 Z M22.08,2 L22.157,3 L27.843,3 L27.92,2 L22.08,2 Z M27.689,5 L22.311,5 L22.926,13 L27.074,13 L27.689,5 Z M21.074,15 L19.92,0 L30.08,0 L28.926,15 L21.074,15 Z M48.436,3.18 L46.818,1.566 L25,23.385 L3.182,1.566 L1.564,3.18 L23.384,25.001 L1.565,46.82 L3.182,48.435 L25,26.616 L46.818,48.435 L48.435,46.82 L26.616,25.001 L48.436,3.18 Z M49.586,21.001 L51,22.415 L47,26.415 L47,34 L45,34 L45,26.415 L41,22.414 L42.414,21 L45,23.587 L45,21.758 L41,17.758 L42.414,16.344 L45,18.93 L45,16 L47,16 L47,18.93 L49.586,16.344 L51,17.758 L47,21.758 L47,23.587 L49.586,21.001 Z M30.361,43.5253 C30.174,43.3753 29.973,43.2643 29.757,43.1923 C29.542,43.1203 29.337,43.0543 29.145,42.9943 L29.253,42.9583 C29.446,42.9223 29.644,42.8623 29.848,42.7783 C30.051,42.6943 30.238,42.5773 30.406,42.4273 C30.574,42.2773 30.714,42.1083 30.829,41.8923 C30.943,41.6763 31,41.4123 31,41.1003 L31,39.3943 C31,38.9263 30.937,38.5393 30.811,38.2333 C30.685,37.9273 30.496,37.6813 30.244,37.4953 C29.992,37.3093 29.67,37.1803 29.281,37.1083 C28.891,37.0363 28.438,37.0003 27.921,37.0003 L19,37.0003 L19,49.0003 L27.813,49.0003 C28.834,49.0003 29.62,48.8143 30.171,48.4423 C30.723,48.0703 31,47.4763 31,46.6603 L31,45.2623 C31,44.7943 30.939,44.4253 30.82,44.1553 C30.7,43.8853 30.546,43.6753 30.361,43.5253 Z M21,39.0163 L28.118,39.0163 C28.43,39.0163 28.655,39.0643 28.794,39.1603 C28.931,39.2563 29,39.4063 29,39.6103 L29,41.4063 C29,41.6463 28.931,41.8053 28.794,41.8833 C28.655,41.9613 28.43,42.0003 28.118,42.0003 L21,42.0003 L21,39.0163 Z M29,46.2289429 C29,46.5409429 28.934,46.7479429 28.802,46.8499429 C28.67,46.9519429 28.478,47.0029429 28.226,47.0029429 L21,47.0176974 L21,44.0003 L28.226,43.9855455 C28.478,43.9855455 28.67,44.0365455 28.802,44.1385455 C28.934,44.2405455 29,44.4535455 29,44.7775455 L29,46.2289429 Z" id="tbr-crest"></path>
        </g>
    </g>
</svg>