<?xml version="1.0" encoding="UTF-8" standalone="no"?>
<svg width="250px" height="250px" viewBox="0 0 250 250" version="1.1" xmlns="http://www.w3.org/2000/svg" xmlns:xlink="http://www.w3.org/1999/xlink">
    <!-- Generator: Sketch 3.6.1 (26313) - http://www.bohemiancoding.com/sketch -->
    <title>cta-gallery</title>
    <desc>Created with Sketch.</desc>
    <defs>
        <linearGradient x1="100%" y1="112.407618%" x2="0%" y2="-4.95976693%" id="linearGradient-1">
            <stop stop-color="#EC7967" offset="0%"></stop>
            <stop stop-color="#C9A1BD" offset="100%"></stop>
        </linearGradient>
    </defs>
    <g id="Assets" stroke="none" stroke-width="1" fill="none" fill-rule="evenodd">
        <g id="cta-gallery">
            <circle id="Oval-1" fill="#FAF8F4" cx="125" cy="125" r="125"></circle>
            <path d="M110,87 L140,87 C141.659,87 143,85.659 143,84 C143,82.344 141.659,81 140,81 L110,81 C108.341,81 107,82.344 107,84 C107,85.659 108.341,87 110,87 M125,111 C115.061,111 107,119.061 107,129 C107,138.939 115.061,147 125,147 C134.939,147 143,138.939 143,129 C143,119.061 134.939,111 125,111 M125,141 C118.373,141 113,135.627 113,129 C113,122.373 118.373,117 125,117 C131.627,117 137,122.373 137,129 C137,135.627 131.627,141 125,141 M125,99 C108.431,99 95,112.434 95,129 C95,145.572 108.431,159 125,159 C141.569,159 155,145.572 155,129 C155,112.434 141.569,99 125,99 M125,153 C111.746,153 101,142.257 101,129 C101,115.746 111.746,105 125,105 C138.254,105 149,115.746 149,129 C149,142.257 138.254,153 125,153 M170,117 C168.341,117 167,118.344 167,120 C167,121.659 168.341,123 170,123 C171.659,123 173,121.659 173,120 C173,118.344 171.659,117 170,117 M170,93 C165.032,93 161,97.032 161,102 C161,106.971 165.032,111 170,111 C174.968,111 179,106.971 179,102 C179,97.032 174.968,93 170,93 M170,105 C168.341,105 167,103.659 167,102 C167,100.344 168.341,99 170,99 C171.659,99 173,100.344 173,102 C173,103.659 171.659,105 170,105 M179,81 L167,81 C158,81 158,69 146,69 L104,69 C92,69 92,81 83,81 L71,81 C64.373,81 59,86.373 59,93 L59,165 C59,171.627 64.373,177 71,177 L179,177 C185.627,177 191,171.627 191,165 L191,93 C191,86.373 185.627,81 179,81 M185,141 L158.909,141 C158.165,143.097 157.244,145.104 156.146,147 L185,147 L185,165 C185,168.312 182.312,171 179,171 L71,171 C67.688,171 65,168.312 65,165 L65,147 L93.857,147 C92.756,145.104 91.835,143.097 91.091,141 L65,141 L65,93 C65,89.691 67.688,87 71,87 L83,87 C95,87 95,75 104,75 L146,75 C155,75 155,87 167,87 L179,87 C182.312,87 185,89.691 185,93 L185,141" id="dslr" fill="url(#linearGradient-1)"></path>
        </g>
    </g>
</svg>