<?xml version="1.0" encoding="UTF-8" standalone="no"?>
<svg width="159px" height="56px" viewBox="0 0 159 56" version="1.1" xmlns="http://www.w3.org/2000/svg" xmlns:xlink="http://www.w3.org/1999/xlink">
    <!-- Generator: Sketch 3.7.1 (28215) - http://www.bohemiancoding.com/sketch -->
    <title>cta-menu-spring-16</title>
    <desc>Created with Sketch.</desc>
    <defs>
        <linearGradient x1="97.357448%" y1="50%" x2="0%" y2="48.7355739%" id="linearGradient-1">
            <stop stop-color="#89C7BF" offset="0%"></stop>
            <stop stop-color="#DDD290" offset="50.2977124%"></stop>
            <stop stop-color="#F2A994" offset="100%"></stop>
        </linearGradient>
    </defs>
    <g id="Symbols" stroke="none" stroke-width="1" fill="none" fill-rule="evenodd">
        <g id="cta-menu-spring-16">
            <g id="SPR1N6">
                <path d="M15.0574586,29.292 L6.63345861,22.896 C4.13745861,20.946 3.12345861,19.308 3.12345861,16.032 L3.12345861,9.012 C3.12345861,5.268 5.15145861,3.396 9.12945861,3.396 L10.4554586,3.396 C14.5114586,3.396 16.4614586,5.268 16.4614586,9.012 L16.4614586,18.528 L19.5034586,18.528 L19.5034586,9.09 C19.5034586,3.474 16.4614586,0.51 10.5334586,0.51 L9.05145861,0.51 C3.04545861,0.51 0.0814586115,3.474 0.0814586115,9.168 L0.0814586115,16.11 C0.0814586115,20.322 1.25145861,22.974 4.68345861,25.548 L13.1074586,32.022 C15.6034586,33.894 16.6174586,35.532 16.6174586,38.886 L16.6174586,47.388 C16.6174586,51.132 14.5894586,53.004 10.5334586,53.004 L9.05145861,53.004 C5.07345861,53.004 3.04545861,51.132 3.04545861,47.388 L3.04545861,36.234 L0.00345861149,36.234 L0.00345861149,47.31 C0.00345861149,52.926 3.04545861,55.89 8.97345861,55.89 L10.6894586,55.89 C16.6174586,55.89 19.6594586,52.926 19.6594586,47.232 L19.6594586,38.73 C19.6594586,34.362 18.4114586,31.866 15.0574586,29.292 L15.0574586,29.292 Z M33.0537919,33.582 L38.8257919,33.582 C45.2217919,33.582 48.4977919,30.306 48.4977919,23.988 L48.4977919,9.792 C48.4977919,3.942 45.0657919,0.9 39.0597919,0.9 L30.0117919,0.9 L30.0117919,55.5 L33.0537919,55.5 L33.0537919,33.582 Z M45.4557919,9.636 L45.4557919,24.144 C45.4557919,28.512 43.1937919,30.696 38.7477919,30.696 L33.0537919,30.696 L33.0537919,3.786 L38.9817919,3.786 C43.0377919,3.786 45.4557919,5.736 45.4557919,9.636 L45.4557919,9.636 Z M71.5641251,29.136 C74.8401251,27.966 77.0241251,25.704 77.0241251,20.478 L77.0241251,9.792 C77.0241251,3.942 74.0601251,0.9 68.0541251,0.9 L57.9921251,0.9 L57.9921251,55.5 L61.0341251,55.5 L61.0341251,30.618 L67.1181251,30.618 C71.7981251,30.618 74.0601251,32.802 74.0601251,37.404 L74.0601251,55.5 L77.1021251,55.5 L77.1021251,37.326 C77.1021251,32.334 74.9961251,29.994 71.5641251,29.136 L71.5641251,29.136 Z M73.9821251,9.636 L73.9821251,20.946 C73.9821251,25.47 71.7201251,27.732 67.1181251,27.732 L61.0341251,27.732 L61.0341251,3.786 L67.9761251,3.786 C72.0321251,3.786 73.9821251,5.736 73.9821251,9.636 L73.9821251,9.636 Z M95.7224584,0.666 L92.5244584,0.666 L91.5884584,1.914 C89.7944584,4.332 88.2344584,5.346 85.2704584,5.736 L84.6464584,5.814 L84.6464584,10.65 L89.7944584,10.65 L89.7944584,55.5 L95.7224584,55.5 L95.7224584,0.666 Z M127.282486,55.5 L127.282486,0.9 L124.396486,0.9 L124.396486,10.65 L124.630486,48.012 L109.732486,0.9 L106.612486,0.9 L106.612486,55.5 L109.498486,55.5 L109.498486,45.75 L109.186486,8.466 L124.162486,55.5 L127.282486,55.5 Z M143.320514,10.26 C143.320514,7.452 144.646514,6.126 147.298514,6.126 L148.780514,6.126 C151.432514,6.126 152.758514,7.452 152.758514,10.26 L152.758514,17.826 L158.764514,17.826 L158.764514,10.26 C158.764514,3.474 155.722514,0.432 148.936514,0.432 L147.298514,0.432 C140.512514,0.432 137.158514,3.786 137.158514,10.572 L137.158514,45.828 C137.158514,52.614 140.512514,55.968 147.298514,55.968 L148.858514,55.968 C155.644514,55.968 158.998514,52.614 158.998514,45.828 L158.998514,32.178 C158.998514,26.796 155.722514,23.13 150.184514,23.13 L149.794514,23.13 C147.298514,23.13 145.192514,23.832 143.320514,24.846 L143.320514,10.26 Z M143.320514,30.072 C144.568514,29.448 146.830514,28.902 148.702514,28.902 C151.510514,28.902 152.914514,30.228 152.914514,33.348 L152.914514,46.14 C152.914514,48.948 151.588514,50.274 148.936514,50.274 L147.298514,50.274 C144.646514,50.274 143.320514,48.948 143.320514,46.14 L143.320514,30.072 Z" fill="url(#linearGradient-1)"></path>
                <path d="M95.7224584,0.666 L92.5244584,0.666 L91.5884584,1.914 C89.7944584,4.332 88.2344584,5.346 85.2704584,5.736 L84.6464584,5.814 L84.6464584,10.65 L89.7944584,10.65 L89.7944584,55.5 L95.7224584,55.5 L95.7224584,0.666 Z" id="Path" fill-opacity="0.3" fill="#383736"></path>
                <path d="M143.320514,10.26 C143.320514,7.452 144.646514,6.126 147.298514,6.126 L148.780514,6.126 C151.432514,6.126 152.758514,7.452 152.758514,10.26 L152.758514,17.826 L158.764514,17.826 L158.764514,10.26 C158.764514,3.474 155.722514,0.432 148.936514,0.432 L147.298514,0.432 C140.512514,0.432 137.158514,3.786 137.158514,10.572 L137.158514,45.828 C137.158514,52.614 140.512514,55.968 147.298514,55.968 L148.858514,55.968 C155.644514,55.968 158.998514,52.614 158.998514,45.828 L158.998514,32.178 C158.998514,26.796 155.722514,23.13 150.184514,23.13 L149.794514,23.13 C147.298514,23.13 145.192514,23.832 143.320514,24.846 L143.320514,10.26 Z M143.320514,30.072 C144.568514,29.448 146.830514,28.902 148.702514,28.902 C151.510514,28.902 152.914514,30.228 152.914514,33.348 L152.914514,46.14 C152.914514,48.948 151.588514,50.274 148.936514,50.274 L147.298514,50.274 C144.646514,50.274 143.320514,48.948 143.320514,46.14 L143.320514,30.072 Z" id="Combined-Shape" fill-opacity="0.3" fill="#383736"></path>
            </g>
        </g>
    </g>
</svg>