<?xml version="1.0" encoding="UTF-8" standalone="no"?>
<svg width="250px" height="250px" viewBox="0 0 250 250" version="1.1" xmlns="http://www.w3.org/2000/svg" xmlns:xlink="http://www.w3.org/1999/xlink">
    <!-- Generator: Sketch 3.6.1 (26313) - http://www.bohemiancoding.com/sketch -->
    <title>cta-events</title>
    <desc>Created with Sketch.</desc>
    <defs>
        <linearGradient x1="0%" y1="0%" x2="100%" y2="100%" id="linearGradient-1">
            <stop stop-color="#84D49F" offset="0%"></stop>
            <stop stop-color="#A5ABC6" offset="100%"></stop>
        </linearGradient>
    </defs>
    <g id="Assets" stroke="none" stroke-width="1" fill="none" fill-rule="evenodd">
        <g id="cta-events">
            <circle id="Oval-1" fill="#FAF8F4" cx="125" cy="125" r="125"></circle>
            <path d="M179,69 L167,69 L167,60 C167,58.344 165.659,57 164,57 C162.341,57 161,58.344 161,60 L161,69 L89,69 L89,60 C89,58.344 87.659,57 86,57 C84.341,57 83,58.344 83,60 L83,69 L71,69 C64.373,69 59,74.373 59,81.003 L59,177 C59,183.627 64.373,189 71,189 L179,189 C185.627,189 191,183.627 191,177 L191,81.003 C191,74.373 185.627,69 179,69 L179,69 Z M185,177 C185,180.315 182.312,183 179,183 L71,183 C67.688,183 65,180.315 65,177 L65,105 L185,105 L185,177 L185,177 Z M185,99 L65,99 L65,81.003 C65,77.688 67.688,75 71,75 L83,75 L83,84 C83,85.659 84.341,87 86,87 C87.659,87 89,85.659 89,84 L89,75 L161,75 L161,84 C161,85.659 162.341,87 164,87 C165.659,87 167,85.659 167,84 L167,75 L179,75 C182.312,75 185,77.688 185,81.003 L185,99 Z M99.65,158.4 C102.11,163.08 107.15,165.6 112.91,165.6 C120.71,165.6 127.25,159.48 127.25,151.2 C127.25,144.18 122.27,138.48 115.91,137.52 L125.15,126.9 L125.15,123 L101.75,123 L101.75,128.7 L116.27,128.7 L107.33,139.26 L107.33,143.16 C107.99,142.98 109.85,142.5 112.19,142.5 C117.47,142.5 121.25,146.16 121.25,151.2 C121.25,156.24 117.29,159.9 112.55,159.9 C109.07,159.9 106.01,158.16 104.63,155.52 L99.65,158.4 Z M141.65,130.5 L141.65,165 L147.65,165 L147.65,123 L143.45,123 L133.55,128.64 L133.55,134.58 L141.65,130.5 Z" id="day" fill="url(#linearGradient-1)"></path>
        </g>
    </g>
</svg>