<?xml version="1.0" encoding="UTF-8" standalone="no"?>
<svg width="124px" height="124px" viewBox="0 0 124 124" version="1.1" xmlns="http://www.w3.org/2000/svg" xmlns:xlink="http://www.w3.org/1999/xlink">
    <!-- Generator: Sketch 3.7.1 (28215) - http://www.bohemiancoding.com/sketch -->
    <title>cta-events</title>
    <desc>Created with Sketch.</desc>
    <defs>
        <linearGradient x1="0%" y1="0%" x2="100%" y2="100%" id="linearGradient-1">
            <stop stop-color="#84D49F" offset="0%"></stop>
            <stop stop-color="#A5ABC6" offset="100%"></stop>
        </linearGradient>
    </defs>
    <g id="Symbols" stroke="none" stroke-width="1" fill="none" fill-rule="evenodd">
        <g id="cta-events">
            <circle id="Oval-1" fill="#FAF8F4" cx="62" cy="62" r="62"></circle>
            <path d="M89,34 L83,34 L83,29.5 C83,28.672 82.3295,28 81.5,28 C80.6705,28 80,28.672 80,29.5 L80,34 L44,34 L44,29.5 C44,28.672 43.3295,28 42.5,28 C41.6705,28 41,28.672 41,29.5 L41,34 L35,34 C31.6865,34 29,36.6865 29,40.0015 L29,88 C29,91.3135 31.6865,94 35,94 L89,94 C92.3135,94 95,91.3135 95,88 L95,40.0015 C95,36.6865 92.3135,34 89,34 L89,34 Z M92,88 C92,89.6575 90.656,91 89,91 L35,91 C33.344,91 32,89.6575 32,88 L32,52 L92,52 L92,88 L92,88 Z M92,49 L32,49 L32,40.0015 C32,38.344 33.344,37 35,37 L41,37 L41,41.5 C41,42.3295 41.6705,43 42.5,43 C43.3295,43 44,42.3295 44,41.5 L44,37 L80,37 L80,41.5 C80,42.3295 80.6705,43 81.5,43 C82.3295,43 83,42.3295 83,41.5 L83,37 L89,37 C90.656,37 92,38.344 92,40.0015 L92,49 Z M49.325,78.7 C50.555,81.04 53.075,82.3 55.955,82.3 C59.855,82.3 63.125,79.24 63.125,75.1 C63.125,71.59 60.635,68.74 57.455,68.26 L62.075,62.95 L62.075,61 L50.375,61 L50.375,63.85 L57.635,63.85 L53.165,69.13 L53.165,71.08 C53.495,70.99 54.425,70.75 55.595,70.75 C58.235,70.75 60.125,72.58 60.125,75.1 C60.125,77.62 58.145,79.45 55.775,79.45 C54.035,79.45 52.505,78.58 51.815,77.26 L49.325,78.7 Z M70.325,64.75 L70.325,82 L73.325,82 L73.325,61 L71.225,61 L66.275,63.82 L66.275,66.79 L70.325,64.75 Z" id="day" fill="url(#linearGradient-1)"></path>
        </g>
    </g>
</svg>