<?xml version="1.0" encoding="UTF-8" standalone="no"?>
<svg width="124px" height="124px" viewBox="0 0 124 124" version="1.1" xmlns="http://www.w3.org/2000/svg" xmlns:xlink="http://www.w3.org/1999/xlink">
    <!-- Generator: Sketch 3.7.1 (28215) - http://www.bohemiancoding.com/sketch -->
    <title>cta-gallery</title>
    <desc>Created with Sketch.</desc>
    <defs>
        <linearGradient x1="100%" y1="112.407618%" x2="0%" y2="-4.95976693%" id="linearGradient-1">
            <stop stop-color="#EC7967" offset="0%"></stop>
            <stop stop-color="#C9A1BD" offset="100%"></stop>
        </linearGradient>
    </defs>
    <g id="Symbols" stroke="none" stroke-width="1" fill="none" fill-rule="evenodd">
        <g id="cta-gallery">
            <path d="M62,124 C96.2416545,124 124,96.2416545 124,62 C124,27.7583455 96.2416545,0 62,0 C27.7583455,0 0,27.7583455 0,62 C0,96.2416545 27.7583455,124 62,124 Z" id="Oval-1" fill="#FAF8F4"></path>
            <path d="M54.5,43 L69.5,43 C70.3295,43 71,42.3295 71,41.5 C71,40.672 70.3295,40 69.5,40 L54.5,40 C53.6705,40 53,40.672 53,41.5 C53,42.3295 53.6705,43 54.5,43 M62,55 C57.0305,55 53,59.0305 53,64 C53,68.9695 57.0305,73 62,73 C66.9695,73 71,68.9695 71,64 C71,59.0305 66.9695,55 62,55 M62,70 C58.6865,70 56,67.3135 56,64 C56,60.6865 58.6865,58 62,58 C65.3135,58 68,60.6865 68,64 C68,67.3135 65.3135,70 62,70 M62,49 C53.7155,49 47,55.717 47,64 C47,72.286 53.7155,79 62,79 C70.2845,79 77,72.286 77,64 C77,55.717 70.2845,49 62,49 M62,76 C55.373,76 50,70.6285 50,64 C50,57.373 55.373,52 62,52 C68.627,52 74,57.373 74,64 C74,70.6285 68.627,76 62,76 M84.5,58 C83.6705,58 83,58.672 83,59.5 C83,60.3295 83.6705,61 84.5,61 C85.3295,61 86,60.3295 86,59.5 C86,58.672 85.3295,58 84.5,58 M84.5,46 C82.016,46 80,48.016 80,50.5 C80,52.9855 82.016,55 84.5,55 C86.984,55 89,52.9855 89,50.5 C89,48.016 86.984,46 84.5,46 M84.5,52 C83.6705,52 83,51.3295 83,50.5 C83,49.672 83.6705,49 84.5,49 C85.3295,49 86,49.672 86,50.5 C86,51.3295 85.3295,52 84.5,52 M89,40 L83,40 C78.5,40 78.5,34 72.5,34 L51.5,34 C45.5,34 45.5,40 41,40 L35,40 C31.6865,40 29,42.6865 29,46 L29,82 C29,85.3135 31.6865,88 35,88 L89,88 C92.3135,88 95,85.3135 95,82 L95,46 C95,42.6865 92.3135,40 89,40 M92,70 L78.9545,70 C78.5825,71.0485 78.122,72.052 77.573,73 L92,73 L92,82 C92,83.656 90.656,85 89,85 L35,85 C33.344,85 32,83.656 32,82 L32,73 L46.4285,73 C45.878,72.052 45.4175,71.0485 45.0455,70 L32,70 L32,46 C32,44.3455 33.344,43 35,43 L41,43 C47,43 47,37 51.5,37 L72.5,37 C77,37 77,43 83,43 L89,43 C90.656,43 92,44.3455 92,46 L92,70" id="dslr" fill="url(#linearGradient-1)"></path>
        </g>
    </g>
</svg>