<?xml version="1.0" encoding="UTF-8" standalone="no"?>
<svg width="44px" height="44px" viewBox="0 0 44 44" version="1.1" xmlns="http://www.w3.org/2000/svg" xmlns:xlink="http://www.w3.org/1999/xlink">
    <!-- Generator: Sketch 3.6.1 (26313) - http://www.bohemiancoding.com/sketch -->
    <title>directions</title>
    <desc>Created with Sketch.</desc>
    <defs></defs>
    <g id="Home" stroke="none" stroke-width="1" fill="none" fill-rule="evenodd">
        <g id="home--mobile" transform="translate(-271.000000, -334.000000)" fill="#FAF8F4">
            <g id="1">
                <g id="directions" transform="translate(271.000000, 334.000000)">
                    <path d="M13,6 C9.134,6 6,9.13344764 6,13 C6,16.8645521 9.134,20 13,20 C16.866,20 20,16.8645521 20,13 C20,9.13344764 16.866,6 13,6 M13,18 C10.239,18 8,15.7613432 8,13 C8,10.2386568 10.239,8 13,8 C15.762,8 18,10.2386568 18,13 C18,15.7613432 15.762,18 13,18 M32,22 C32.6089284,21.9512016 32.7724406,22 33,22 C33.2526993,22 33.564774,21.8102285 34,21 C34.0179363,20.9199288 34.3683196,20.3538674 35,20 C35.1130008,19.323679 35.0616113,18.6394171 35,18 C34.2702123,17.8684024 33.680634,17.9291293 33,18 C32.8714823,19.050408 32.4603659,19.7173194 32,20 C31.8679846,20.8808901 32.0146784,21.5445483 32,22 M14,37 C13.7976333,36.4453046 13.3967548,36 13,36 C12.4044901,36 12,36.4533827 12,37 C12,37.1066981 12.0117374,37.6206664 12,38 C12.3846267,38.7485695 12.7295267,39 13,39 C13.2008299,39 13.3073697,38.9798048 13,39 C13.8779896,38.7425109 14.1163498,38.1629081 14,38 C13.8211082,37.2712891 13.8066621,37.0188489 14,37 M24,42 C23.3893118,42.1359669 22.7281011,42.0819237 22,42 C21.5638592,41.9353658 21.0745829,42.3017605 21,43 C20.9399828,43.307514 21.323151,43.7645914 22,44 C22.5316045,43.9047374 23.238992,43.9633605 24,44 C23.9837138,44 24.000416,44 24,44 C24.5368515,44 24.9711088,43.6207815 25,43 C25.0271103,42.6260198 24.6115202,42.19459 24,42 M18,41 C17.6640361,40.7332426 17.0692672,40.4551257 17,40 C16.0598065,39.8497509 15.4300512,40.0201759 15,41 C14.8538045,41.0155417 15.0184464,41.6575108 16,42 C16.1380114,42.3235276 16.8490586,42.6560133 18,43 C17.7381249,42.9801345 17.8544033,43 18,43 C18.3925765,43 18.7877171,42.7354753 19,42 C19.1314071,41.7652027 18.8535739,41.1650557 18,41 M30,42 C29.2532025,42.0913333 28.5945573,42.1528156 28,42 C27.3785214,42.2251479 26.9676055,42.6564288 27,43 C27.0364191,43.6329139 27.4689622,44 28,44 C28.0037428,44 28.0253699,43.9981917 28,44 C28.7705237,43.9538882 29.4802876,43.8887892 30,44 C30.6923914,43.7296583 31.0659513,43.2721569 31,43 C30.9135782,42.2839178 30.4171367,41.935819 30,42 M38,14 C37.6564007,14.5399105 37.0269911,14.9418018 36,15 C35.934555,15.6885654 35.864499,16.2679509 36,17 C36.4632591,16.8850425 36.7774165,17 37,17 C37.3378647,17 37.5830608,16.9337845 38,17 C38.3733803,16.3911853 38.9666672,16.0141249 40,16 C40.033927,15.3703631 40.147768,14.7964955 40,14 C39.4428293,13.9706412 38.7597831,13.8768359 38,14 M38,34 C37.2420799,34.131143 36.9142363,34.6520453 37,35 C37.0828685,35.5028197 37.1158413,35.8149672 37,36 C37.1158413,36.3545787 37.0932314,36.5968131 37,37 C36.9519195,37.3629039 37.2854156,37.8798675 38,38 C37.8572577,37.9950765 37.9175508,38 38,38 C38.4196791,38 38.8134683,37.6740668 39,37 C38.9670272,36.846925 39,36.4816041 39,36 C39,35.681049 38.9547802,35.2339986 39,35 C38.7588277,34.2502908 38.2566994,33.9125412 38,34 M44,12 C43.6195718,12.0404356 42.9888414,11.8855421 42,12 C42.4782004,12.0904533 42.121065,12.232439 42,12 C41.0266852,12.7132543 40.8512502,13.2061707 41,14 C41.3295193,13.8539806 41.6824777,14 42,14 C42.2213136,14 42.398837,13.966117 43,14 C43.0984883,13.6587502 43.424296,13.5280588 43,14 C43.9464238,13.3199206 44.1479651,12.8342649 44,12 M37,31 C36.4397657,30.5737866 36.0053007,29.9487168 36,29 C35.1799954,28.8927192 34.6164374,28.8882303 34,29 C33.9148834,29.7568192 33.9113222,30.468299 34,31 C34.6841,31.4569642 35.0704889,32.0135793 35,33 C35.5779582,32.8485019 35.8423764,33 36,33 C36.2990987,33 36.488732,32.9259343 37,33 C37.0416064,32.3906411 37.1155011,31.6870168 37,31 M34,26 C33.5288303,25.9801335 33.3311575,25.4441269 33,25 C33.1982396,24.3468781 32.6517994,23.9471443 32,24 C31.3907836,24.0662569 30.9386356,24.5618863 31,25 C31.105635,25.9316809 31.3964639,26.72812 32,27 C32.0803662,27.8142651 32.4666232,28 33,28 C33.0528252,28 33.2425456,27.9586134 33,28 C33.9662096,27.5992569 34.1616103,26.9835054 34,26 M35,40 C34.8698705,40.5073566 34.2923561,40.8044595 34,41 C33.1133077,41.2727744 32.8595356,41.8609375 33,42 C33.2448933,42.765339 33.6344283,43 34,43 C34.1764355,43 34.3121984,42.9758289 34,43 C35.225987,42.6122555 35.9361313,42.2446535 37,42 C37.024323,41.5164995 37.1423323,40.8890583 37,40 C36.4854488,39.9765998 35.8327427,39.8627942 35,40 M13,0 C5.82,0 0,5.861 0,13 C0,23.728 13,34 13,34 C13,34 26,23.728 26,13 C26,5.861 20.18,0 13,0 M13,31 C11.808,29.952402 9.92,28.1790882 8,26 C5.282,22.6863573 2,17.7850601 2,13 C2,6.91413299 6.935,2 13,2 C19.065,2 24,6.91413299 24,13 C24,20.544755 16.108,28.256103 13,31"></path>
                </g>
            </g>
        </g>
    </g>
</svg>
