<?xml version="1.0" encoding="UTF-8" standalone="no"?>
<svg width="19px" height="19px" viewBox="0 0 19 19" version="1.1" xmlns="http://www.w3.org/2000/svg" xmlns:xlink="http://www.w3.org/1999/xlink">
    <!-- Generator: Sketch 3.6.1 (26313) - http://www.bohemiancoding.com/sketch -->
    <title>expand--light</title>
    <desc>Created with Sketch.</desc>
    <defs></defs>
    <g id="Assets" stroke="none" stroke-width="1" fill="none" fill-rule="evenodd">
        <g id="expand--light" fill="#FAF8F4">
            <path d="M10,9 L10,0.508204103 C10,0.226615146 9.77614237,6.6786905e-13 9.5,6.67818323e-13 C9.23193359,6.6776908e-13 9,0.227530727 9,0.508204103 L9,9 L0.508204103,9 C0.226615146,9 0,9.22385763 0,9.5 C0,9.76806641 0.227530727,10 0.508204103,10 L9,10 L9,18.4917959 C9,18.7733849 9.22385763,19 9.5,19 C9.76806641,19 10,18.7724693 10,18.4917959 L10,10 L18.4917959,10 C18.7733849,10 19,9.77614237 19,9.5 C19,9.23193359 18.7724693,9 18.4917959,9 L10,9 Z" id="+"></path>
        </g>
    </g>
</svg>