<?xml version="1.0" encoding="UTF-8" standalone="no"?>
<svg width="10px" height="20px" viewBox="0 0 10 20" version="1.1" xmlns="http://www.w3.org/2000/svg" xmlns:xlink="http://www.w3.org/1999/xlink">
    <!-- Generator: Sketch 3.6.1 (26313) - http://www.bohemiancoding.com/sketch -->
    <title>left</title>
    <desc>Created with Sketch.</desc>
    <defs></defs>
    <g id="Assets" stroke="none" stroke-width="1" fill="none" fill-rule="evenodd">
        <g id="left" fill="#383635">
            <path d="M1.1885,10 L9.8535,0.8535 C9.9445,0.763 10,0.6385 10,0.5 C10,0.224 9.7765,0 9.5,0 C9.362,0 9.2375,0.056 9.1465,0.1465 L0.1465,9.6465 C0.056,9.7375 0,9.8625 0,10 C0,10.138 0.0555,10.263 0.1465,10.3535 L9.1465,19.8535 C9.2375,19.9445 9.362,20 9.5,20 C9.7765,20 10,19.7765 10,19.5 C10,19.3625 9.9445,19.2375 9.8535,19.1465 L1.1885,10"></path>
        </g>
    </g>
</svg>