<?xml version="1.0" encoding="UTF-8" standalone="no"?>
<svg width="22px" height="22px" viewBox="0 0 22 22" version="1.1" xmlns="http://www.w3.org/2000/svg" xmlns:xlink="http://www.w3.org/1999/xlink">
    <!-- Generator: Sketch 3.6.1 (26313) - http://www.bohemiancoding.com/sketch -->
    <title>image-in-gallery</title>
    <desc>Created with Sketch.</desc>
    <defs></defs>
    <g id="Assets" stroke="none" stroke-width="1" fill="none" fill-rule="evenodd" fill-opacity="0.6">
        <g id="image-in-gallery" fill="#FAF8F4">
            <path d="M5.5,8 C6.881,8 8,6.8815 8,5.5 C8,4.1195 6.881,3 5.5,3 C4.119,3 3,4.1195 3,5.5 C3,6.8815 4.119,8 5.5,8 L5.5,8 Z M5.5,4 C6.328,4 7,4.672 7,5.5 C7,6.3285 6.328,7 5.5,7 C4.672,7 4,6.3285 4,5.5 C4,4.672 4.672,4 5.5,4 L5.5,4 Z M18.9645,18.315 L18.962,18.311 C18.9345,18.2455 18.894,18.188 18.8435,18.1395 L14.4645,11.815 L14.463,11.816 C14.3885,11.6315 14.2105,11.5 14,11.5 C13.862,11.5 13.7375,11.556 13.6465,11.647 L11.571,13.722 L8.961,9.808 C8.8855,9.6275 8.708,9.5 8.5,9.5 C8.3265,9.5 8.1815,9.594 8.092,9.7275 L8.084,9.7225 L3.084,18.2225 L3.092,18.228 C3.0385,18.3075 3,18.398 3,18.501 C3,18.777 3.2235,19 3.5,19 L18.5,19 C18.7765,19 19,18.777 19,18.501 C19,18.4345 18.9855,18.3725 18.963,18.316 L18.9645,18.315 L18.9645,18.315 Z M4.373,18 L8.531,10.931 L11.039,14.693 C11.0635,14.7525 11.0995,14.8055 11.1445,14.8505 L11.1465,14.8535 C11.2375,14.945 11.362,15 11.5,15 C11.638,15 11.763,14.945 11.8535,14.8535 L13.939,12.768 L17.561,18 L4.373,18 L4.373,18 Z M20,0 L2,0 C0.8955,0 0,0.8955 0,2 L0,20 C0,21.105 0.8955,22 2,22 L20,22 C21.1045,22 22,21.105 22,20 L22,2 C22,0.8955 21.1045,0 20,0 L20,0 Z M21,20 C21,20.553 20.552,21.001 20,21.001 L2,21.001 C1.447,21.001 1,20.553 1,20 L1,2 C1,1.448 1.447,1 2,1 L20,1 C20.552,1 21,1.448 21,2 L21,20 L21,20 Z" id="image"></path>
        </g>
    </g>
</svg>