<?xml version="1.0" encoding="UTF-8" standalone="no"?>
<svg width="428px" height="21px" viewBox="0 0 428 21" version="1.1" xmlns="http://www.w3.org/2000/svg" xmlns:xlink="http://www.w3.org/1999/xlink">
    <!-- Generator: Sketch 3.6.1 (26313) - http://www.bohemiancoding.com/sketch -->
    <title>tbr-masthead</title>
    <desc>Created with Sketch.</desc>
    <defs></defs>
    <g id="Assets" stroke="none" stroke-width="1" fill="none" fill-rule="evenodd">
        <g id="tbr-masthead" fill="#FAF8F4">
            <path d="M15.02,21 L10.31,21 L10.31,4.08 L0.8,4.08 L0.8,0.6 L24.35,0.6 L24.35,4.08 L15.02,4.08 L15.02,21 Z M31.15,0.6 L35.86,0.6 L35.86,8.67 L50.95,8.67 L50.95,0.6 L55.66,0.6 L55.66,21 L50.95,21 L50.95,12.39 L35.86,12.39 L35.86,21 L31.15,21 L31.15,0.6 Z M65.46,0.6 L86.61,0.6 L86.61,4.08 L70.17,4.08 L70.17,8.73 L79.8,8.73 L79.8,12.39 L70.17,12.39 L70.17,17.31 L86.76,17.31 L86.76,21 L65.46,21 L65.46,0.6 Z M124.75,17.52 C125.170002,17.52 125.489999,17.4350008 125.71,17.265 C125.930001,17.0949991 126.04,16.7500026 126.04,16.23 L126.04,13.62 C126.04,13.0799973 125.930001,12.7250008 125.71,12.555 C125.489999,12.3849991 125.170002,12.3 124.75,12.3 L112.72,12.3 L112.72,17.52 L124.75,17.52 Z M125.89,4.95 C125.89,4.6099983 125.775001,4.3600008 125.545,4.2 C125.314999,4.0399992 124.940003,3.96 124.42,3.96 L112.72,3.96 L112.72,8.91 L124.42,8.91 C124.940003,8.91 125.314999,8.84500065 125.545,8.715 C125.775001,8.58499935 125.89,8.320002 125.89,7.92 L125.89,4.95 Z M127.48,10.59 C127.800002,10.6900005 128.139998,10.7999994 128.5,10.92 C128.860002,11.0400006 129.194998,11.2249987 129.505,11.475 C129.815002,11.7250012 130.069999,12.0749977 130.27,12.525 C130.470001,12.9750022 130.57,13.5899961 130.57,14.37 L130.57,17.1 C130.57,18.4600068 130.110005,19.4499969 129.19,20.07 C128.269995,20.6900031 126.960008,21 125.26,21 L108.16,21 L108.16,0.6 L125.26,0.6 C126.120004,0.6 126.874997,0.6599994 127.525,0.78 C128.175003,0.9000006 128.709998,1.11499845 129.13,1.425 C129.550002,1.73500155 129.864999,2.14499745 130.075,2.655 C130.285001,3.16500255 130.39,3.8099961 130.39,4.59 L130.39,7.41 C130.39,7.9300026 130.295001,8.3699982 130.105,8.73 C129.914999,9.0900018 129.680001,9.39499875 129.4,9.645 C129.119999,9.89500125 128.810002,10.0899993 128.47,10.23 C128.129998,10.3700007 127.800002,10.4699997 127.48,10.53 L127.48,10.59 Z M144.66,21 C142.939991,21 141.695004,20.6550034 140.925,19.965 C140.154996,19.2749965 139.77,18.0900084 139.77,16.41 L139.77,4.68 C139.77,3.8199957 139.904999,3.12500265 140.175,2.595 C140.445001,2.06499735 140.804998,1.6500015 141.255,1.35 C141.705002,1.0499985 142.224997,0.8500005 142.815,0.75 C143.405003,0.6499995 144.019997,0.6 144.66,0.6 L160.2,0.6 C161.180005,0.6 161.979997,0.69499905 162.6,0.885 C163.220003,1.07500095 163.709998,1.34499825 164.07,1.695 C164.430002,2.04500175 164.679999,2.4699975 164.82,2.97 C164.960001,3.4700025 165.03,4.0399968 165.03,4.68 L165.03,16.41 C165.03,17.2500042 164.945001,17.9599971 164.775,18.54 C164.604999,19.1200029 164.335002,19.5949981 163.965,19.965 C163.594998,20.3350018 163.100003,20.5999992 162.48,20.76 C161.859997,20.9200008 161.100004,21 160.2,21 L144.66,21 Z M160.32,17.25 L160.32,4.23 L144.48,4.23 L144.48,17.25 L160.32,17.25 Z M185.75,21 L181.04,21 L181.04,4.08 L171.53,4.08 L171.53,0.6 L195.08,0.6 L195.08,4.08 L185.75,4.08 L185.75,21 Z M212.74,21 L208.03,21 L208.03,4.08 L198.52,4.08 L198.52,0.6 L222.07,0.6 L222.07,4.08 L212.74,4.08 L212.74,21 Z M228.87,0.6 L233.58,0.6 L233.58,17.25 L249.12,17.25 L249.12,21 L228.87,21 L228.87,0.6 Z M257.42,0.6 L278.57,0.6 L278.57,4.08 L262.13,4.08 L262.13,8.73 L271.76,8.73 L271.76,12.39 L262.13,12.39 L262.13,17.31 L278.72,17.31 L278.72,21 L257.42,21 L257.42,0.6 Z M314.79,13.47 L323.67,21 L317.34,21 L309.09,13.47 L304.83,13.47 L304.83,21 L300.12,21 L300.12,0.6 L317.49,0.6 C319.010008,0.6 320.174996,0.89499705 320.985,1.485 C321.795004,2.07500295 322.2,3.1399923 322.2,4.68 L322.2,9.57 C322.2,10.3500039 322.075001,10.9949974 321.825,11.505 C321.574999,12.0150025 321.230002,12.4149985 320.79,12.705 C320.349998,12.9950014 319.845003,13.1949994 319.275,13.305 C318.704997,13.4150005 318.110003,13.47 317.49,13.47 L314.79,13.47 Z M315.9,9.81 C316.240002,9.81 316.529999,9.8000001 316.77,9.78 C317.010001,9.7599999 317.204999,9.70500045 317.355,9.615 C317.505001,9.52499955 317.61,9.37500105 317.67,9.165 C317.73,8.95499895 317.76,8.6700018 317.76,8.31 L317.76,5.7 C317.76,5.3199981 317.73,5.0200011 317.67,4.8 C317.61,4.5799989 317.510001,4.41500055 317.37,4.305 C317.229999,4.19499945 317.040001,4.1300001 316.8,4.11 C316.559999,4.0899999 316.260002,4.08 315.9,4.08 L304.83,4.08 L304.83,9.81 L315.9,9.81 Z M335.81,21 C334.089991,21 332.845004,20.6550034 332.075,19.965 C331.304996,19.2749965 330.92,18.0900084 330.92,16.41 L330.92,4.68 C330.92,3.8199957 331.054999,3.12500265 331.325,2.595 C331.595001,2.06499735 331.954998,1.6500015 332.405,1.35 C332.855002,1.0499985 333.374997,0.8500005 333.965,0.75 C334.555003,0.6499995 335.169997,0.6 335.81,0.6 L351.35,0.6 C352.330005,0.6 353.129997,0.69499905 353.75,0.885 C354.370003,1.07500095 354.859998,1.34499825 355.22,1.695 C355.580002,2.04500175 355.829999,2.4699975 355.97,2.97 C356.110001,3.4700025 356.18,4.0399968 356.18,4.68 L356.18,16.41 C356.18,17.2500042 356.095001,17.9599971 355.925,18.54 C355.754999,19.1200029 355.485002,19.5949981 355.115,19.965 C354.744998,20.3350018 354.250003,20.5999992 353.63,20.76 C353.009997,20.9200008 352.250004,21 351.35,21 L335.81,21 Z M351.47,17.25 L351.47,4.23 L335.63,4.23 L335.63,17.25 L351.47,17.25 Z M370.27,21 C368.549991,21 367.305004,20.6550034 366.535,19.965 C365.764996,19.2749965 365.38,18.0900084 365.38,16.41 L365.38,4.68 C365.38,3.8199957 365.514999,3.12500265 365.785,2.595 C366.055001,2.06499735 366.414998,1.6500015 366.865,1.35 C367.315002,1.0499985 367.834997,0.8500005 368.425,0.75 C369.015003,0.6499995 369.629997,0.6 370.27,0.6 L385.81,0.6 C386.790005,0.6 387.589997,0.69499905 388.21,0.885 C388.830003,1.07500095 389.319998,1.34499825 389.68,1.695 C390.040002,2.04500175 390.289999,2.4699975 390.43,2.97 C390.570001,3.4700025 390.64,4.0399968 390.64,4.68 L390.64,16.41 C390.64,17.2500042 390.555001,17.9599971 390.385,18.54 C390.214999,19.1200029 389.945002,19.5949981 389.575,19.965 C389.204998,20.3350018 388.710003,20.5999992 388.09,20.76 C387.469997,20.9200008 386.710004,21 385.81,21 L370.27,21 Z M385.93,17.25 L385.93,4.23 L370.09,4.23 L370.09,17.25 L385.93,17.25 Z M400.14,0.6 L404.58,0.6 L413.85,12.6 L423.12,0.6 L427.71,0.6 L427.71,21 L423,21 L423,6.84 L413.97,18.54 L413.07,18.54 L404.34,7.08 L404.34,21 L400.14,21 L400.14,0.6 Z" id="THE-BOTTLE-ROOM"></path>
        </g>
    </g>
</svg>