<?xml version="1.0" encoding="UTF-8" standalone="no"?>
<svg width="36px" height="44px" viewBox="0 0 36 44" version="1.1" xmlns="http://www.w3.org/2000/svg" xmlns:xlink="http://www.w3.org/1999/xlink">
    <!-- Generator: Sketch 3.6.1 (26313) - http://www.bohemiancoding.com/sketch -->
    <title>menu</title>
    <desc>Created with Sketch.</desc>
    <defs></defs>
    <g id="Home" stroke="none" stroke-width="1" fill="none" fill-rule="evenodd">
        <g id="home--mobile" transform="translate(-169.000000, -334.000000)" fill="#FAF8F4">
            <g id="1">
                <g id="menu" transform="translate(169.000000, 334.000000)">
                    <path d="M7,22 L19,22 C19.552,22 20,21.553 20,21 C20,20.448 19.552,20 19,20 L7,20 C6.448,20 6,20.448 6,21 C6,21.553 6.448,22 7,22 L7,22 Z M7,28 L29,28 C29.552,28 30,27.553 30,27 C30,26.448 29.552,26 29,26 L7,26 C6.448,26 6,26.448 6,27 C6,27.553 6.448,28 7,28 L7,28 Z M7,34 L25,34 C25.552,34 26,33.553 26,33 C26,32.448 25.552,32 25,32 L7,32 C6.448,32 6,32.448 6,33 C6,33.553 6.448,34 7,34 L7,34 Z M34,6 L26,6 L26,4 C26,2.896 25.104,2 24,2 L20,2 C20,0.896 19.104,0 18,0 C16.896,0 16,0.896 16,2 L12,2 C10.896,2 10,2.896 10,4 L10,6 L2,6 C0.896,6 0,6.896 0,8 L0,42 C0,43.104 0.896,44 2,44 L34,44 C35.104,44 36,43.104 36,42 L36,8 C36,6.896 35.104,6 34,6 L34,6 Z M12,4 L24,4 L24,8 L12,8 L12,4 Z M2,14 L34,14 L34,42 L2,42 L2,14 Z M34,12 L2,12 L2,8 L10,8 C10,9.104 10.896,10 12,10 L24,10 C25.104,10 26,9.104 26,8 L34,8 L34,12 L34,12 Z" id="clipboard"></path>
                </g>
            </g>
        </g>
    </g>
</svg>
