<?xml version="1.0" encoding="UTF-8" standalone="no"?>
<svg width="22px" height="22px" viewBox="0 0 22 22" version="1.1" xmlns="http://www.w3.org/2000/svg" xmlns:xlink="http://www.w3.org/1999/xlink">
    <!-- Generator: Sketch 3.6.1 (26313) - http://www.bohemiancoding.com/sketch -->
    <title>minus</title>
    <desc>Created with Sketch.</desc>
    <defs></defs>
    <g id="Assets" stroke="none" stroke-width="1" fill="none" fill-rule="evenodd" fill-opacity="0.9">
        <g id="minus" fill="#7D2F28">
            <path d="M16.5,10.5 L5.5,10.5 C5.2235,10.5 5,10.724 5,11 C5,11.277 5.2235,11.501 5.5,11.501 L16.5,11.501 C16.7765,11.501 17,11.277 17,11 C17,10.724 16.7765,10.5 16.5,10.5 M11,0 C4.925,0 0,4.9255 0,11 C0,17.075 4.925,22 11,22 C17.075,22 22,17.075 22,11 C22,4.9255 17.075,0 11,0 M11,21 C5.4775,21 1,16.523 1,11 C1,5.4775 5.4775,1 11,1 C16.523,1 21,5.4775 21,11 C21,16.523 16.523,21 11,21"></path>
        </g>
    </g>
</svg>