<?xml version="1.0" encoding="UTF-8" standalone="no"?>
<svg width="44px" height="44px" viewBox="0 0 44 44" version="1.1" xmlns="http://www.w3.org/2000/svg" xmlns:xlink="http://www.w3.org/1999/xlink">
    <!-- Generator: Sketch 3.6.1 (26313) - http://www.bohemiancoding.com/sketch -->
    <title>reserve-bottles</title>
    <desc>Created with Sketch.</desc>
    <defs></defs>
    <g id="Assets" stroke="none" stroke-width="1" fill="none" fill-rule="evenodd">
        <g id="reserve-bottles" fill="#FAF8F4">
            <path d="M44,13 C44,12.776 43.912,12.578 43.787,12.411 L43.8,12.401 L43.737,12.338 C43.713,12.312 43.69,12.288 43.662,12.263 L31.8,0.401 L31.786,0.41 C31.604,0.168 31.327,0 31,0 L13,0 C12.673,0 12.396,0.168 12.214,0.41 L12.2,0.401 L0.338,12.263 C0.31,12.288 0.287,12.312 0.263,12.338 L0.2,12.401 L0.214,12.411 C0.088,12.578 0,12.776 0,13 C0,13.239 0.094,13.449 0.233,13.619 L0.223,13.628 L21.223,43.629 L21.233,43.619 C21.417,43.847 21.685,44 22,44 C22.315,44 22.583,43.847 22.767,43.619 L22.777,43.629 L43.777,13.628 L43.767,13.619 C43.905,13.449 44,13.239 44,13 L44,13 Z M30.6,2 L40.6,12 L31.611,12 L26.611,2 L30.6,2 L30.6,2 Z M24.389,2 L29.388,12 L14.612,12 L19.611,2 L24.389,2 L24.389,2 Z M13.4,2 L17.389,2 L12.389,12 L3.4,12 L13.4,2 L13.4,2 Z M2.918,14 L12.257,14 L19.262,37.348 L2.918,14 L2.918,14 Z M22,39.524 L14.342,14 L29.657,14 L22,39.524 L22,39.524 Z M24.738,37.348 L31.743,14 L41.082,14 L24.738,37.348 L24.738,37.348 Z"></path>
        </g>
    </g>
</svg>