<?xml version="1.0" encoding="UTF-8" standalone="no"?>
<svg width="22px" height="22px" viewBox="0 0 22 22" version="1.1" xmlns="http://www.w3.org/2000/svg" xmlns:xlink="http://www.w3.org/1999/xlink">
    <!-- Generator: Sketch 3.6.1 (26313) - http://www.bohemiancoding.com/sketch -->
    <title>instagram--mobile</title>
    <desc>Created with Sketch.</desc>
    <defs></defs>
    <g id="Home" stroke="none" stroke-width="1" fill="none" fill-rule="evenodd" opacity="1.0">
        <g id="navigation--mobile" transform="translate(-76.000000, -390.000000)" fill="#383736">
            <g id="categories-expanded">
                <g id="instagram--mobile" transform="translate(76.000000, 390.000000)">
                    <path d="M17.6,0 L4.4,0 C1.9701,0 0,1.9701 0,4.4 L0,17.6 C0,20.0299 1.9701,22 4.4,22 L17.6,22 C20.0299,22 22,20.0299 22,17.6 L22,4.4 C22,1.9701 20.0299,0 17.6,0 Z M15.4,3.3 L18.7,3.3 L18.7,6.6 L15.4,6.6 L15.4,3.3 Z M11,6.6 C13.4299,6.6 15.4,8.5701 15.4,11 C15.4,13.4299 13.4299,15.4 11,15.4 C8.5701,15.4 6.6,13.4299 6.6,11 C6.6,8.5701 8.5701,6.6 11,6.6 Z M19.8,17.6 C19.8,18.8144 18.8144,19.8 17.6,19.8 L4.4,19.8 C3.1856,19.8 2.2,18.8144 2.2,17.6 L2.2,9.9 L4.5111,9.9 C4.4506,10.2597 4.4,10.6238 4.4,11 C4.4,14.6454 7.3557,17.6 11,17.6 C14.6443,17.6 17.6,14.6454 17.6,11 C17.6,10.6238 17.5505,10.2597 17.4889,9.9 L19.8,9.9 L19.8,17.6 Z" id="instagram"></path>
                </g>
            </g>
        </g>
    </g>
</svg>
