<?xml version="1.0" encoding="UTF-8" standalone="no"?>
<svg width="22px" height="18px" viewBox="0 0 22 18" version="1.1" xmlns="http://www.w3.org/2000/svg" xmlns:xlink="http://www.w3.org/1999/xlink">
    <!-- Generator: Sketch 3.7 (28169) - http://www.bohemiancoding.com/sketch -->
    <title>social-twitter--dark</title>
    <desc>Created with Sketch.</desc>
    <defs></defs>
    <g id="Assets" stroke="none" stroke-width="1" fill="none" fill-rule="evenodd">
        <g id="social-twitter--dark" fill="#807D7B">
            <g id="twitter">
                <path d="M21.3917,0.331937238 C20.5194,0.852909921 19.5536,1.23098081 18.5262,1.434644 C17.7034,0.551353379 16.5297,0 15.2317,0 C12.7391,0 10.7184,2.03550666 10.7184,4.54360193 C10.7184,4.90029381 10.7569,5.24573358 10.835,5.57992124 C7.084,5.38976058 3.7576,3.58042133 1.5323,0.830405701 C1.1429,1.50328187 0.9207,2.28305307 0.9207,3.1157092 C0.9207,4.69212977 1.716,6.08289054 2.9282,6.8986685 C2.189,6.87391386 1.4927,6.67025067 0.8844,6.32931175 C0.8833,6.34956554 0.8833,6.36644371 0.8833,6.38669751 C0.8833,8.58873539 2.4398,10.4262049 4.5045,10.8436582 C4.125,10.9471776 3.7279,11.0011877 3.3154,11.0011877 C3.025,11.0011877 2.7412,10.9730574 2.4662,10.9201725 C3.0404,12.7272614 4.7069,14.0392574 6.6814,14.0763893 C5.137,15.296118 3.1911,16.0207539 1.0769,16.0207539 C0.7106,16.0207539 0.3531,16.0016253 0,15.9599925 C1.9976,17.2472339 4.3703,18 6.919,18 C15.2218,18 19.7615,11.0765769 19.7615,5.07020066 C19.7615,4.87328874 19.7571,4.67750203 19.7483,4.48284053 C20.6294,3.84147028 21.3939,3.04144527 22,2.1322748 C21.1904,2.49234231 20.3214,2.7365131 19.4084,2.84565856 C20.339,2.28305307 21.0551,1.39301119 21.3917,0.331937238"></path>
            </g>
        </g>
    </g>
</svg>
