<?xml version="1.0" encoding="UTF-8" standalone="no"?>
<svg width="44px" height="44px" viewBox="0 0 44 44" version="1.1" xmlns="http://www.w3.org/2000/svg" xmlns:xlink="http://www.w3.org/1999/xlink">
    <!-- Generator: Sketch 3.6.1 (26313) - http://www.bohemiancoding.com/sketch -->
    <title>special-events</title>
    <desc>Created with Sketch.</desc>
    <defs></defs>
    <g id="Assets" stroke="none" stroke-width="1" fill="none" fill-rule="evenodd">
        <g id="special-events" fill="#FAF8F4">
            <path d="M40,4 L36,4 L36,1 C36,0.448 35.553,0 35,0 C34.447,0 34,0.448 34,1 L34,4 L10,4 L10,1 C10,0.448 9.553,0 9,0 C8.447,0 8,0.448 8,1 L8,4 L4,4 C1.791,4 0,5.791 0,8.001 L0,40 C0,42.209 1.791,44 4,44 L40,44 C42.209,44 44,42.209 44,40 L44,8.001 C44,5.791 42.209,4 40,4 L40,4 Z M42,40 C42,41.105 41.104,42 40,42 L4,42 C2.896,42 2,41.105 2,40 L2,16 L42,16 L42,40 L42,40 Z M42,14 L2,14 L2,8.001 C2,6.896 2.896,6 4,6 L8,6 L8,9 C8,9.553 8.447,10 9,10 C9.553,10 10,9.553 10,9 L10,6 L34,6 L34,9 C34,9.553 34.447,10 35,10 C35.553,10 36,9.553 36,9 L36,6 L40,6 C41.104,6 42,6.896 42,8.001 L42,14 Z M13.55,33.8 C14.37,35.36 16.05,36.2 17.97,36.2 C20.57,36.2 22.75,34.16 22.75,31.4 C22.75,29.06 21.09,27.16 18.97,26.84 L22.05,23.3 L22.05,22 L14.25,22 L14.25,23.9 L19.09,23.9 L16.11,27.42 L16.11,28.72 C16.33,28.66 16.95,28.5 17.73,28.5 C19.49,28.5 20.75,29.72 20.75,31.4 C20.75,33.08 19.43,34.3 17.85,34.3 C16.69,34.3 15.67,33.72 15.21,32.84 L13.55,33.8 Z M27.55,24.5 L27.55,36 L29.55,36 L29.55,22 L28.15,22 L24.85,23.88 L24.85,25.86 L27.55,24.5 Z"></path>
        </g>
    </g>
</svg>