<?xml version="1.0" encoding="UTF-8" standalone="no"?>
<svg width="137px" height="78px" viewBox="0 0 137 78" version="1.1" xmlns="http://www.w3.org/2000/svg" xmlns:xlink="http://www.w3.org/1999/xlink">
    <!-- Generator: Sketch 3.6.1 (26313) - http://www.bohemiancoding.com/sketch -->
    <title>tbr-masthead-vertical</title>
    <desc>Created with Sketch.</desc>
    <defs></defs>
    <g id="Assets" stroke="none" stroke-width="1" fill="none" fill-rule="evenodd">
        <g id="tbr-masthead-vertical" fill="#FAF8F4">
            <path d="M44.352,16.3880615 L40.584,16.3880615 L40.584,2.85206152 L32.976,2.85206152 L32.976,0.0680615234 L51.816,0.0680615234 L51.816,2.85206152 L44.352,2.85206152 L44.352,16.3880615 Z M57.256,0.0680615234 L61.024,0.0680615234 L61.024,6.52406152 L73.096,6.52406152 L73.096,0.0680615234 L76.864,0.0680615234 L76.864,16.3880615 L73.096,16.3880615 L73.096,9.50006152 L61.024,9.50006152 L61.024,16.3880615 L57.256,16.3880615 L57.256,0.0680615234 Z M84.704,0.0680615234 L101.624,0.0680615234 L101.624,2.85206152 L88.472,2.85206152 L88.472,6.57206152 L96.176,6.57206152 L96.176,9.50006152 L88.472,9.50006152 L88.472,13.4360615 L101.744,13.4360615 L101.744,16.3880615 L84.704,16.3880615 L84.704,0.0680615234 Z M13.6079999,44.0120205 C13.9440016,44.0120205 14.199999,43.9440212 14.3759999,43.8080205 C14.5520008,43.6720198 14.6399999,43.3960226 14.6399999,42.9800205 L14.6399999,40.8920205 C14.6399999,40.4600183 14.5520008,40.1760212 14.3759999,40.0400205 C14.199999,39.9040198 13.9440016,39.8360205 13.6079999,39.8360205 L3.98399993,39.8360205 L3.98399993,44.0120205 L13.6079999,44.0120205 Z M14.5199999,33.9560205 C14.5199999,33.6840191 14.4280008,33.4840211 14.2439999,33.3560205 C14.059999,33.2280199 13.760002,33.1640205 13.3439999,33.1640205 L3.98399993,33.1640205 L3.98399993,37.1240205 L13.3439999,37.1240205 C13.760002,37.1240205 14.059999,37.072021 14.2439999,36.9680205 C14.4280008,36.86402 14.5199999,36.6520221 14.5199999,36.3320205 L14.5199999,33.9560205 Z M15.7919999,38.4680205 C16.0480012,38.5480209 16.3199985,38.63602 16.6079999,38.7320205 C16.8960014,38.828021 17.1639987,38.9760195 17.4119999,39.1760205 C17.6600012,39.3760215 17.8639991,39.6560187 18.0239999,40.0160205 C18.1840007,40.3760223 18.2639999,40.8680174 18.2639999,41.4920205 L18.2639999,43.6760205 C18.2639999,44.7640259 17.8960036,45.556018 17.1599999,46.0520205 C16.4239962,46.548023 15.3760067,46.7960205 14.0159999,46.7960205 L0.335999928,46.7960205 L0.335999928,30.4760205 L14.0159999,30.4760205 C14.7040034,30.4760205 15.3079973,30.52402 15.8279999,30.6200205 C16.3480025,30.716021 16.7759982,30.8880193 17.1119999,31.1360205 C17.4480016,31.3840217 17.6999991,31.7120185 17.8679999,32.1200205 C18.0360008,32.5280225 18.1199999,33.0440174 18.1199999,33.6680205 L18.1199999,35.9240205 C18.1199999,36.3400226 18.0440007,36.6920191 17.8919999,36.9800205 C17.7399992,37.2680219 17.552001,37.5120195 17.3279999,37.7120205 C17.1039988,37.9120215 16.8560013,38.0680199 16.5839999,38.1800205 C16.3119986,38.2920211 16.0480012,38.3720203 15.7919999,38.4200205 L15.7919999,38.4680205 Z M29.536,46.7960205 C28.1599931,46.7960205 27.164003,46.5200233 26.548,45.9680205 C25.9319969,45.4160177 25.624,44.4680272 25.624,43.1240205 L25.624,33.7400205 C25.624,33.0520171 25.7319989,32.4960226 25.948,32.0720205 C26.164001,31.6480184 26.4519982,31.3160217 26.812,31.0760205 C27.1720018,30.8360193 27.5879976,30.6760209 28.06,30.5960205 C28.5320023,30.5160201 29.0239974,30.4760205 29.536,30.4760205 L41.968,30.4760205 C42.7520039,30.4760205 43.3919975,30.5520197 43.888,30.7040205 C44.3840024,30.8560213 44.7759985,31.0720191 45.064,31.3520205 C45.3520014,31.6320219 45.5519994,31.9720185 45.664,32.3720205 C45.7760005,32.7720225 45.832,33.2280179 45.832,33.7400205 L45.832,43.1240205 C45.832,43.7960239 45.7640006,44.3640182 45.628,44.8280205 C45.4919993,45.2920228 45.2760014,45.672019 44.98,45.9680205 C44.6839985,46.264022 44.2880024,46.4760199 43.792,46.6040205 C43.2959975,46.7320211 42.6880036,46.7960205 41.968,46.7960205 L29.536,46.7960205 Z M42.064,43.7960205 L42.064,33.3800205 L29.392,33.3800205 L29.392,43.7960205 L42.064,43.7960205 Z M62.408,46.7960205 L58.64,46.7960205 L58.64,33.2600205 L51.032,33.2600205 L51.032,30.4760205 L69.872,30.4760205 L69.872,33.2600205 L62.408,33.2600205 L62.408,46.7960205 Z M84,46.7960205 L80.232,46.7960205 L80.232,33.2600205 L72.624,33.2600205 L72.624,30.4760205 L91.464,30.4760205 L91.464,33.2600205 L84,33.2600205 L84,46.7960205 Z M96.904,30.4760205 L100.672,30.4760205 L100.672,43.7960205 L113.104,43.7960205 L113.104,46.7960205 L96.904,46.7960205 L96.904,30.4760205 Z M119.744,30.4760205 L136.664,30.4760205 L136.664,33.2600205 L123.512,33.2600205 L123.512,36.9800205 L131.216,36.9800205 L131.216,39.9080205 L123.512,39.9080205 L123.512,43.8440205 L136.784,43.8440205 L136.784,46.7960205 L119.744,46.7960205 L119.744,30.4760205 Z M29.104,71.1799795 L36.208,77.2039795 L31.144,77.2039795 L24.544,71.1799795 L21.136,71.1799795 L21.136,77.2039795 L17.368,77.2039795 L17.368,60.8839795 L31.264,60.8839795 C32.480006,60.8839795 33.4119967,61.1199771 34.06,61.5919795 C34.7080032,62.0639819 35.032,62.9159733 35.032,64.1479795 L35.032,68.0599795 C35.032,68.6839826 34.932001,69.1999775 34.732,69.6079795 C34.531999,70.0159815 34.2560017,70.3359783 33.904,70.5679795 C33.5519982,70.7999807 33.1480022,70.9599791 32.692,71.0479795 C32.2359977,71.1359799 31.7600024,71.1799795 31.264,71.1799795 L29.104,71.1799795 Z M29.992,68.2519795 C30.2640013,68.2519795 30.495999,68.2439796 30.688,68.2279795 C30.8800009,68.2119794 31.0359994,68.1679799 31.156,68.0959795 C31.2760006,68.0239791 31.3599997,67.9039803 31.408,67.7359795 C31.4560002,67.5679787 31.48,67.3399809 31.48,67.0519795 L31.48,64.9639795 C31.48,64.659978 31.4560002,64.4199804 31.408,64.2439795 C31.3599997,64.0679786 31.2800005,63.9359799 31.168,63.8479795 C31.0559994,63.7599791 30.9040009,63.7079796 30.712,63.6919795 C30.519999,63.6759794 30.2800014,63.6679795 29.992,63.6679795 L21.136,63.6679795 L21.136,68.2519795 L29.992,68.2519795 Z M45.92,77.2039795 C44.5439931,77.2039795 43.5480031,76.9279823 42.932,76.3759795 C42.3159969,75.8239767 42.008,74.8759862 42.008,73.5319795 L42.008,64.1479795 C42.008,63.4599761 42.1159989,62.9039816 42.332,62.4799795 C42.5480011,62.0559774 42.8359982,61.7239807 43.196,61.4839795 C43.5560018,61.2439783 43.9719976,61.0839799 44.444,61.0039795 C44.9160023,60.9239791 45.4079974,60.8839795 45.92,60.8839795 L58.352,60.8839795 C59.1360039,60.8839795 59.7759975,60.9599787 60.272,61.1119795 C60.7680025,61.2639803 61.1599985,61.4799781 61.448,61.7599795 C61.7360014,62.0399809 61.9359994,62.3799775 62.048,62.7799795 C62.1600005,63.1799815 62.216,63.6359769 62.216,64.1479795 L62.216,73.5319795 C62.216,74.2039829 62.1480007,74.7719772 62.012,75.2359795 C61.8759993,75.6999818 61.6600015,76.079978 61.364,76.3759795 C61.0679985,76.671981 60.6720025,76.8839789 60.176,77.0119795 C59.6799975,77.1399801 59.0720036,77.2039795 58.352,77.2039795 L45.92,77.2039795 Z M58.448,74.2039795 L58.448,63.7879795 L45.776,63.7879795 L45.776,74.2039795 L58.448,74.2039795 Z M73.488,77.2039795 C72.1119931,77.2039795 71.1160031,76.9279823 70.5,76.3759795 C69.8839969,75.8239767 69.576,74.8759862 69.576,73.5319795 L69.576,64.1479795 C69.576,63.4599761 69.6839989,62.9039816 69.9,62.4799795 C70.1160011,62.0559774 70.4039982,61.7239807 70.764,61.4839795 C71.1240018,61.2439783 71.5399976,61.0839799 72.012,61.0039795 C72.4840024,60.9239791 72.9759974,60.8839795 73.488,60.8839795 L85.92,60.8839795 C86.7040039,60.8839795 87.3439975,60.9599787 87.84,61.1119795 C88.3360025,61.2639803 88.7279986,61.4799781 89.016,61.7599795 C89.3040014,62.0399809 89.5039994,62.3799775 89.616,62.7799795 C89.7280006,63.1799815 89.784,63.6359769 89.784,64.1479795 L89.784,73.5319795 C89.784,74.2039829 89.7160007,74.7719772 89.58,75.2359795 C89.4439993,75.6999818 89.2280015,76.079978 88.932,76.3759795 C88.6359985,76.671981 88.2400025,76.8839789 87.744,77.0119795 C87.2479975,77.1399801 86.6400036,77.2039795 85.92,77.2039795 L73.488,77.2039795 Z M86.016,74.2039795 L86.016,63.7879795 L73.344,63.7879795 L73.344,74.2039795 L86.016,74.2039795 Z M97.384,60.8839795 L100.936,60.8839795 L108.352,70.4839795 L115.768,60.8839795 L119.44,60.8839795 L119.44,77.2039795 L115.672,77.2039795 L115.672,65.8759795 L108.448,75.2359795 L107.728,75.2359795 L100.744,66.0679795 L100.744,77.2039795 L97.384,77.2039795 L97.384,60.8839795 Z" id="THE-BOTTLE-ROOM"></path>
        </g>
    </g>
</svg>