<?xml version="1.0" encoding="UTF-8" standalone="no"?>
<svg width="18px" height="22px" viewBox="0 0 18 22" version="1.1" xmlns="http://www.w3.org/2000/svg" xmlns:xlink="http://www.w3.org/1999/xlink">
    <!-- Generator: Sketch 3.6.1 (26313) - http://www.bohemiancoding.com/sketch -->
    <title>yelp--mobile</title>
    <desc>Created with Sketch.</desc>
    <defs></defs>
    <g id="Home" stroke="none" stroke-width="1" fill="none" fill-rule="evenodd" opacity="1.0">
        <g id="navigation--mobile" transform="translate(-281.000000, -390.000000)" fill="#383736">
            <g id="categories-expanded">
                <g id="yelp--mobile" transform="translate(281.000000, 390.000000)">
                    <path d="M11.1032043,14.0394728 C10.7280975,14.4138046 11.0451559,15.09472 11.0451559,15.09472 L13.8696569,19.7618471 C13.8696569,19.7618471 14.3330985,20.3768876 14.7350212,20.3768876 C15.1385214,20.3768876 15.5372893,20.0490741 15.5372893,20.0490741 L17.7699481,16.8905133 C17.7699481,16.8905133 17.9948861,16.4921419 17.9999338,16.1430986 C18.0081363,15.6466954 17.2519284,15.5105748 17.2519284,15.5105748 L11.9657293,13.830921 C11.9657293,13.830921 11.448025,13.6948004 11.1032043,14.0394728 Z M10.8351717,11.6871459 C11.1055389,12.1410895 11.8519669,12.0087153 11.8519669,12.0087153 L17.1258622,10.48329 C17.1258622,10.48329 17.8448433,10.1938775 17.9473746,9.80830643 C18.048013,9.42273536 17.8287538,8.95692804 17.8287538,8.95692804 L15.3083763,6.01909502 C15.3083763,6.01909502 15.089748,5.64757309 14.6367174,5.6101087 C14.1369955,5.56796125 13.8294016,6.16645497 13.8294016,6.16645497 L10.8493684,10.807357 C10.8493684,10.807357 10.5859418,11.2697301 10.8351717,11.6871459 Z M8.34337686,9.87780289 C8.96455888,9.72638429 9.06298894,8.83348286 9.06298894,8.83348286 L9.02071449,1.40273219 C9.02071449,1.40273219 8.92733213,0.486103308 8.51089725,0.237589483 C7.85816713,-0.154225654 7.6647773,0.0502675051 7.47769709,0.0777413952 L3.09882128,1.6877738 C3.09882128,1.6877738 2.67008264,1.82826528 2.44672212,2.18230382 C2.12777086,2.68401452 2.77072107,3.41862888 2.77072107,3.41862888 L7.32216497,9.55810671 C7.32216497,9.55810671 7.77140987,10.01767 8.34337686,9.87780289 Z M7.26200275,12.8851948 C7.2777768,12.3119896 6.5666827,11.9676293 6.5666827,11.9676293 L1.86002217,9.61455307 C1.86002217,9.61455307 1.16249375,9.32982366 0.823982673,9.52838496 C0.564657319,9.67980356 0.334671695,9.95454246 0.312272546,10.1971244 L0.00562504681,13.9313881 C0.00562504681,13.9313881 -0.0401196933,14.5785855 0.129293586,14.8729932 C0.36905912,15.290409 1.15870798,14.9997477 1.15870798,14.9997477 L6.65343997,13.7980772 C6.86702058,13.6560247 7.24149649,13.6429122 7.26200275,12.8851948 Z M8.62835081,14.9003422 C8.15670677,14.6605701 7.59231132,15.1569733 7.59231132,15.1569733 L3.91317229,19.1653514 C3.91317229,19.1653514 3.45414749,19.7782065 3.57087545,20.1547237 C3.68066282,20.5075134 3.86301082,20.6826595 4.12044329,20.806292 L7.81535636,21.9605076 C7.81535636,21.9605076 8.26333934,22.0526075 8.60248137,21.9555123 C9.08390533,21.8172062 8.99525518,21.0713526 8.99525518,21.0713526 L9.07885763,15.6440105 C9.07885763,15.6440105 9.05992878,15.1213821 8.62835081,14.9003422 Z" id="yelp"></path>
                </g>
            </g>
        </g>
    </g>
</svg>
